{"glyphs":{"0":{"ha":749,"x_min":0,"x_max":0,"o":"m 775 753 l 781 775 b 688 819 746 804 717 819 b 401 685 644 819 522 778 b 142 208 236 556 142 368 b 326 -44 142 51 242 -44 b 654 143 408 -44 546 14 b 832 606 776 288 832 435 b 775 753 832 672 824 715 z m 613 608 b 714 674 650 653 692 674 b 754 619 740 674 754 654 b 597 288 754 547 708 422 b 311 78 476 140 357 78 b 260 150 271 78 260 97 b 606 643 260 301 376 486 z "},"1":{"ha":749,"x_min":0,"x_max":0,"o":"m 635 671 b 306 57 401 394 306 169 b 421 -61 306 -7 407 -61 b 442 -32 433 -61 442 -50 b 439 4 442 -22 439 -11 b 538 261 439 35 476 158 l 688 515 b 776 719 742 607 776 667 b 732 804 776 767 758 804 b 514 701 713 804 621 772 b 460 628 476 676 460 650 b 472 611 460 618 465 611 b 635 671 490 611 540 638 z "},"2":{"ha":749,"x_min":0,"x_max":0,"o":"m 260 110 b 664 367 410 224 549 299 b 876 622 815 457 876 508 b 836 786 876 696 863 751 b 714 819 814 815 779 819 b 306 521 458 819 306 693 b 342 483 306 486 324 483 b 357 483 347 483 351 483 b 490 507 376 483 429 507 b 500 507 494 507 496 507 b 528 524 519 507 528 511 b 411 567 528 540 488 564 b 736 674 522 642 660 674 b 800 646 778 674 800 665 b 460 404 800 550 653 514 b 158 106 258 289 158 186 b 196 -10 158 71 181 10 b 311 -47 221 -39 257 -47 b 613 -10 456 -47 558 -32 b 728 156 681 19 728 107 b 707 176 728 172 722 176 b 260 110 685 176 538 140 z "},"3":{"ha":749,"x_min":0,"x_max":0,"o":"m 228 172 b 211 174 222 174 217 174 b 157 144 190 174 175 164 b 97 31 118 100 97 60 b 306 -78 97 -39 167 -78 b 607 1 414 -78 518 -51 b 771 228 717 65 771 144 b 476 413 771 347 675 399 b 917 657 775 450 917 519 b 668 826 917 768 833 826 b 306 656 453 826 306 749 b 368 588 306 617 335 588 b 524 596 388 588 439 593 l 438 643 b 717 701 514 681 610 701 b 829 657 790 701 829 689 b 443 493 829 607 699 533 b 286 340 350 478 286 453 b 314 314 286 318 294 314 b 463 326 325 314 374 326 b 667 256 599 326 667 304 b 294 89 667 199 494 89 b 203 136 233 89 203 108 b 228 172 203 149 211 161 z "},"4":{"ha":749,"x_min":0,"x_max":0,"o":"m 618 165 l 688 175 b 764 201 724 181 749 188 b 828 303 807 244 828 283 b 775 338 828 326 810 338 b 764 338 772 338 768 338 l 694 333 l 839 576 b 889 699 871 629 889 667 b 869 749 889 713 883 729 b 890 782 885 761 890 774 b 844 826 890 804 867 826 b 501 657 806 826 671 771 b 182 286 283 511 182 358 b 215 174 182 264 194 215 b 281 136 233 139 244 136 b 313 138 292 136 303 138 b 315 138 314 138 315 138 l 454 144 b 439 6 443 93 439 47 b 474 -78 439 -50 451 -78 b 600 15 514 -78 600 -17 b 589 49 600 31 589 36 b 618 165 589 71 596 117 z m 517 311 b 382 293 476 303 435 293 b 314 303 356 293 333 294 b 826 724 465 513 647 656 b 517 311 688 568 589 432 z "},"5":{"ha":749,"x_min":0,"x_max":0,"o":"m 369 194 b 333 197 357 197 344 197 b 133 53 242 197 133 142 b 253 -60 133 -35 169 -60 b 644 68 388 -60 546 -10 b 782 353 729 133 782 247 b 594 543 782 469 706 543 b 413 513 543 543 482 535 b 521 646 450 567 486 610 l 679 646 b 824 668 758 646 804 647 b 914 826 858 708 896 767 b 749 818 853 821 799 818 b 594 822 664 818 613 822 b 442 725 542 822 521 804 b 294 518 343 625 294 543 b 363 361 294 454 332 361 b 603 406 394 361 486 406 b 701 356 668 406 701 388 b 547 197 701 326 650 256 b 306 117 446 139 350 117 b 254 125 290 117 274 118 z "},"6":{"ha":749,"x_min":0,"x_max":0,"o":"m 458 471 b 850 803 668 711 850 772 b 778 818 850 811 824 818 b 722 818 760 818 742 818 b 533 715 674 818 628 781 b 204 222 324 568 204 378 b 419 -57 204 65 328 -57 b 643 78 469 -57 560 -11 b 765 353 722 161 765 264 b 608 519 765 454 703 519 b 458 471 561 519 515 501 z m 344 150 b 432 317 344 226 376 258 b 606 432 507 393 567 432 b 638 390 626 432 638 418 b 514 158 638 346 594 235 b 376 72 454 100 397 72 b 344 150 357 72 344 100 z "},"7":{"ha":749,"x_min":0,"x_max":0,"o":"m 329 -92 b 510 26 447 -39 510 10 b 503 38 510 32 507 38 b 479 29 497 38 488 29 b 469 60 474 29 469 39 b 885 681 469 154 586 385 b 738 832 883 829 853 832 b 719 832 732 832 726 832 b 400 793 533 832 422 813 b 282 622 335 736 282 636 b 311 589 282 601 296 589 b 406 643 342 589 367 628 b 601 664 436 656 501 664 b 721 657 642 664 682 661 b 267 7 406 382 267 111 b 329 -92 267 -42 289 -75 z "},"8":{"ha":749,"x_min":0,"x_max":0,"o":"m 583 358 b 829 629 742 514 829 596 b 822 650 829 636 826 643 b 936 797 893 653 936 767 b 792 835 936 831 893 835 b 332 574 490 835 332 722 b 433 342 332 507 368 435 b 207 15 285 192 207 88 b 361 -111 207 -58 282 -111 b 578 -18 417 -111 514 -75 b 654 169 632 29 654 88 b 583 358 654 251 625 311 z m 490 261 b 531 154 517 225 531 190 b 367 -6 531 65 440 -6 b 311 25 332 -6 311 10 b 490 261 311 54 371 133 z m 531 435 b 465 551 490 482 465 514 b 657 658 465 613 531 658 b 778 651 700 658 739 656 b 531 435 700 588 618 515 z "},"9":{"ha":749,"x_min":0,"x_max":0,"o":"m 626 349 l 407 49 b 340 -12 376 39 356 19 l 297 -106 b 336 -124 313 -118 324 -124 b 478 -12 361 -124 421 -90 l 829 469 b 863 525 850 497 863 515 b 792 564 863 543 825 564 b 621 443 757 564 711 508 b 390 328 506 358 417 328 b 354 375 372 328 354 347 b 769 656 354 461 497 597 b 694 576 728 607 694 589 b 710 561 694 568 701 561 b 811 621 718 561 763 579 b 860 693 843 649 860 669 b 790 797 860 724 833 751 b 718 828 772 815 744 828 b 392 693 672 828 511 781 b 224 439 282 613 224 515 b 288 286 224 389 244 342 b 386 224 319 246 350 224 b 626 349 415 224 504 258 z "}," ":{"ha":374,"x_min":0,"x_max":0,"o":""},"!":{"ha":510,"x_min":0,"x_max":0,"o":"m 378 285 b 708 804 575 621 708 781 b 664 838 708 818 692 825 l 622 856 b 601 860 613 858 607 860 b 432 621 572 860 526 779 b 272 299 317 429 272 313 b 340 224 272 276 328 224 b 386 272 353 224 386 254 b 378 285 386 276 383 279 z m 194 47 b 271 -22 194 1 236 -22 b 338 125 301 -22 338 47 b 257 200 338 163 296 200 b 194 47 231 200 194 110 z "},"\"":{"ha":514,"x_min":0,"x_max":0,"o":"m 336 925 l 336 567 l 442 567 l 442 925 z m 535 925 l 535 567 l 640 567 l 640 925 z "},"#":{"ha":1106,"x_min":0,"x_max":0,"o":"m 689 940 l 589 660 l 386 660 l 346 549 l 549 549 l 492 386 l 300 386 l 260 276 l 453 276 l 353 -4 l 475 -4 l 576 276 l 739 276 l 639 -4 l 761 -4 l 861 276 l 1060 276 l 1099 386 l 900 386 l 958 549 l 1147 549 l 1185 660 l 997 660 l 1097 940 l 974 940 l 874 660 l 713 660 l 811 940 z m 672 549 l 836 549 l 779 385 l 614 385 z "},"$":{"ha":817,"x_min":0,"x_max":0,"o":"m 507 56 b 811 308 699 97 811 206 b 632 471 811 385 747 449 l 669 603 b 682 603 674 603 678 603 b 768 592 710 603 738 599 l 719 547 b 872 675 844 557 872 581 b 710 736 872 719 825 732 l 742 825 b 747 846 744 836 747 843 b 736 858 747 853 742 858 b 613 733 713 858 625 817 b 289 472 401 706 289 589 b 478 372 289 392 346 372 b 506 372 486 372 496 372 l 460 218 b 442 218 454 218 447 218 b 282 257 386 218 333 232 b 221 136 244 231 221 172 b 407 53 221 93 283 65 l 399 13 b 393 -33 393 -12 393 -26 b 440 -92 393 -65 417 -92 b 485 -29 464 -92 474 -69 z m 601 365 b 700 319 667 361 700 347 b 560 228 700 289 654 254 z m 539 486 b 403 518 440 488 403 482 b 572 596 403 544 460 579 z "},"%":{"ha":861,"x_min":0,"x_max":0,"o":"m 607 821 b 610 833 608 828 610 832 b 554 882 610 863 588 882 b 406 807 514 882 463 856 b 300 599 336 746 300 674 b 417 464 300 518 353 464 b 593 583 460 464 535 510 b 664 760 642 643 664 707 b 614 821 664 801 647 821 b 607 821 611 821 610 821 z m 515 746 b 576 786 544 775 569 786 b 592 768 585 786 592 778 b 519 649 592 757 569 708 b 415 568 475 596 428 568 b 392 593 403 568 392 579 b 524 788 392 642 432 725 z m 272 -81 b 853 596 467 218 674 422 b 961 753 904 646 961 692 b 940 776 961 767 953 776 b 522 426 913 776 751 661 b 211 19 303 201 211 50 b 272 -81 211 -22 238 -79 z m 818 275 b 753 335 818 311 790 335 b 629 272 724 335 678 315 b 521 67 558 210 521 142 b 626 -76 521 -19 567 -76 b 790 29 672 -76 739 -40 b 860 206 838 93 860 163 b 818 275 860 239 847 261 z m 790 264 b 729 115 788 217 767 169 b 633 26 689 57 657 26 b 608 54 617 26 608 36 b 694 201 608 76 638 138 b 790 264 726 236 758 257 z "},"&":{"ha":868,"x_min":0,"x_max":0,"o":"m 608 590 b 785 806 625 725 731 806 b 813 788 801 806 813 799 b 608 590 813 751 743 661 z m 560 224 b 374 154 485 181 426 154 b 324 190 342 154 324 169 b 499 390 324 226 381 326 b 560 224 511 335 533 279 z m 649 69 b 744 -10 688 17 721 -10 b 800 36 767 -10 782 7 b 853 140 832 85 853 118 b 838 169 853 150 849 160 l 806 149 l 767 190 b 888 411 846 257 888 336 b 872 464 888 446 881 464 b 689 318 851 464 814 386 b 626 478 663 372 640 425 b 922 742 822 581 922 665 b 788 867 922 806 865 867 b 524 718 717 867 599 811 b 464 544 483 669 464 613 b 467 504 464 532 465 518 b 193 196 290 433 193 310 b 264 31 193 147 217 86 b 401 -36 301 -14 343 -36 b 649 69 461 -36 550 -3 z "},"’":{"ha":244,"x_min":0,"x_max":0,"o":"m 369 743 b 332 676 356 708 332 697 b 343 669 332 672 336 669 b 418 740 357 669 381 693 b 475 863 457 792 475 835 b 443 896 475 882 463 896 b 326 768 392 896 326 814 b 351 740 326 750 335 740 b 369 743 358 740 363 742 z "},"(":{"ha":438,"x_min":0,"x_max":0,"o":"m 411 97 b 386 82 399 89 392 82 b 372 165 376 82 372 110 b 533 638 372 329 433 469 b 663 833 601 753 663 799 b 617 874 663 854 640 874 b 453 719 585 874 525 822 b 236 161 308 514 236 319 b 325 -15 236 47 275 -15 b 411 92 367 -15 411 28 b 411 97 411 93 411 96 z "},")":{"ha":438,"x_min":0,"x_max":0,"o":"m 404 775 b 425 672 421 738 425 706 b 208 192 425 488 350 347 b 61 11 124 99 61 56 b 83 -14 61 -10 68 -14 b 375 200 115 -14 256 64 b 550 649 492 332 550 482 b 449 875 550 789 504 875 b 378 808 407 875 378 847 b 385 768 378 797 381 783 z "},"*":{"ha":431,"x_min":0,"x_max":0,"o":"m 503 681 l 549 624 b 586 596 563 606 574 596 b 613 624 601 596 613 610 b 596 663 613 635 607 647 l 553 724 l 619 740 b 665 775 653 749 665 751 b 639 801 665 800 656 801 b 633 801 638 801 635 801 b 618 799 632 801 628 800 l 539 785 l 564 857 b 569 882 567 865 569 874 b 543 908 569 896 558 908 b 508 876 525 908 517 896 l 481 806 l 426 863 b 394 883 417 875 408 883 b 368 857 379 883 368 872 b 383 826 368 846 375 838 l 431 760 l 361 742 b 322 706 336 735 322 724 b 354 678 322 690 336 678 b 389 685 367 678 376 681 l 440 701 l 421 628 b 414 600 418 619 414 611 b 442 576 414 586 425 576 b 474 606 458 576 467 586 z "},"+":{"ha":1067,"x_min":0,"x_max":0,"o":"m 629 786 l 629 447 l 299 447 l 299 340 l 629 340 l 629 0 l 739 0 l 739 340 l 1071 340 l 1071 447 l 739 447 l 739 786 z "},",":{"ha":331,"x_min":0,"x_max":0,"o":"m 164 -82 l 194 -82 b 336 100 293 -12 336 71 b 315 132 336 119 326 132 b 174 8 246 132 174 57 b 206 -26 174 -22 206 -19 b 164 -82 206 -32 190 -50 z "},"-":{"ha":642,"x_min":0,"x_max":0,"o":"m 231 243 b 288 228 231 232 250 228 b 342 228 300 228 318 228 b 432 225 369 228 399 225 b 583 256 499 225 547 232 b 667 319 640 292 667 308 b 592 339 667 329 631 339 b 540 332 567 339 550 332 b 438 346 522 332 488 346 b 288 308 365 346 308 326 b 231 243 250 278 231 247 z "},".":{"ha":364,"x_min":0,"x_max":0,"o":"m 178 4 b 214 -31 178 -18 190 -31 b 343 100 272 -31 343 61 b 313 133 343 121 331 133 b 178 4 271 133 178 53 z "},"/":{"ha":457,"x_min":0,"x_max":0,"o":"m 201 -92 b 269 -137 219 -121 251 -137 b 339 -42 303 -137 339 -78 b 332 -12 339 -33 336 -22 b 611 824 454 476 611 738 b 585 857 611 847 603 857 b 401 569 540 857 483 758 b 201 -78 263 251 201 32 b 201 -92 201 -83 201 -87 z "},":":{"ha":388,"x_min":0,"x_max":0,"o":"m 146 3 b 181 -32 146 -19 157 -32 b 311 100 239 -32 311 61 b 281 132 311 121 299 132 b 146 3 239 132 146 51 z m 268 303 b 304 268 268 279 281 268 b 433 400 363 268 433 360 b 403 432 433 421 422 432 b 268 303 361 432 268 351 z "},";":{"ha":447,"x_min":0,"x_max":0,"o":"m 301 301 b 336 267 301 278 313 267 b 467 399 394 267 467 358 b 436 431 467 419 456 431 b 301 301 394 431 301 350 z m 169 -82 l 200 -82 b 342 100 299 -12 342 71 b 321 132 342 119 332 132 b 179 8 251 132 179 57 b 211 -26 179 -22 211 -19 b 169 -82 211 -32 196 -50 z "},"<":{"ha":996,"x_min":0,"x_max":0,"o":"m 993 757 l 235 444 l 235 342 l 993 31 l 993 147 l 392 393 l 993 639 z "},"=":{"ha":1069,"x_min":0,"x_max":0,"o":"m 288 581 l 288 472 l 1060 472 l 1060 581 z m 288 314 l 288 207 l 1060 207 l 1060 314 z "},">":{"ha":996,"x_min":0,"x_max":0,"o":"m 300 757 l 300 639 l 901 393 l 300 147 l 300 31 l 1058 342 l 1058 444 z "},"?":{"ha":642,"x_min":0,"x_max":0,"o":"m 325 -25 b 400 115 350 -25 400 56 b 336 199 400 150 350 199 b 254 57 318 199 254 108 b 325 -25 254 17 297 -25 z m 410 708 b 597 750 463 733 529 750 b 704 694 667 750 704 738 b 572 546 704 646 649 611 b 374 297 443 436 374 364 b 435 194 374 233 414 194 b 461 218 451 194 461 204 b 457 250 461 233 457 244 b 578 408 457 276 503 321 b 767 753 689 535 767 635 b 601 889 767 840 706 889 b 321 707 408 889 321 804 b 374 672 321 683 332 678 b 457 657 432 665 454 657 b 469 669 465 657 469 660 b 451 689 469 681 461 685 z "},"@":{"ha":1510,"x_min":0,"x_max":0,"o":"m 1026 456 l 990 308 b 822 154 968 215 897 154 b 710 286 750 154 710 200 b 907 568 710 443 799 568 b 1026 456 972 568 1014 528 z m 988 182 b 988 179 988 181 988 179 b 1122 72 988 107 1032 72 b 1326 144 1196 72 1268 97 b 1488 492 1431 228 1488 353 b 1318 838 1488 635 1432 750 b 951 949 1229 907 1097 949 b 428 714 732 949 553 867 b 296 336 342 608 296 479 b 493 -71 296 165 360 31 b 901 -194 597 -151 735 -194 b 1335 -47 1060 -194 1206 -144 l 1292 15 b 896 -107 1178 -64 1039 -107 b 401 335 596 -107 401 67 b 643 778 401 521 488 679 b 947 857 728 831 829 857 b 1382 490 1211 857 1382 704 b 1288 238 1382 392 1349 303 b 1150 164 1243 189 1192 164 b 1089 218 1114 164 1089 185 b 1093 250 1089 225 1089 236 l 1189 626 l 1089 626 l 1054 558 b 894 649 1021 619 971 649 b 590 290 731 649 590 496 b 793 74 590 150 663 74 b 988 182 879 74 940 107 z "},"A":{"ha":972,"x_min":0,"x_max":0,"o":"m 850 446 b 647 432 793 438 725 435 b 951 754 715 515 813 625 z m 521 269 b 565 269 535 269 551 269 b 801 281 647 269 726 272 l 744 108 b 736 44 738 89 736 65 b 807 -29 736 -6 760 -29 b 1099 188 892 -29 972 50 l 1097 232 b 901 100 993 144 929 100 b 883 133 892 100 883 114 b 919 279 883 160 896 207 b 1018 303 968 285 997 285 b 1111 425 1072 350 1111 406 b 1050 454 1111 439 1083 454 b 1040 454 1046 454 1043 454 l 972 450 l 1060 733 b 1085 850 1076 786 1085 826 b 1043 906 1085 883 1063 906 b 550 429 1006 906 832 751 l 454 429 b 551 465 489 442 524 438 b 383 436 481 464 426 458 b 282 318 336 411 282 346 b 422 271 282 278 325 276 l 333 160 b 122 -65 226 128 122 -15 b 150 -90 122 -78 133 -90 b 472 208 218 -90 319 15 z "},"B":{"ha":825,"x_min":0,"x_max":0,"o":"m 421 367 b 722 268 621 344 722 307 b 447 125 722 221 588 125 b 314 199 367 125 314 165 b 364 299 314 219 329 257 z m 471 425 l 497 456 b 1028 756 849 496 1028 611 b 764 926 1028 856 924 926 b 460 878 665 926 568 907 b 256 801 364 851 294 828 b 122 603 186 756 122 633 b 151 579 122 590 132 579 b 236 600 171 579 199 588 l 432 664 l 381 676 b 789 764 544 736 682 764 b 915 699 871 764 915 733 b 560 531 915 644 790 568 l 668 660 b 685 690 679 672 685 683 b 672 701 685 697 681 701 b 406 513 597 701 515 633 b 196 439 264 489 196 474 b 294 383 196 411 229 390 l 222 278 b 158 115 181 218 158 168 b 403 -39 158 29 256 -39 b 733 76 504 -39 621 -1 b 863 246 818 136 863 190 b 471 425 863 328 726 403 z "},"C":{"ha":774,"x_min":0,"x_max":0,"o":"m 972 347 b 454 86 758 171 582 86 b 321 213 367 86 321 135 b 596 654 321 328 411 494 b 932 860 765 801 897 860 b 958 833 950 860 958 853 b 758 599 958 800 896 704 l 754 626 b 526 421 599 538 526 456 b 600 333 526 382 568 333 b 886 519 629 333 746 388 b 1079 842 1015 642 1079 750 b 964 950 1079 908 1038 950 b 489 729 854 950 690 879 b 122 197 242 544 122 349 b 383 -46 122 51 226 -46 b 981 293 544 -46 754 65 z "},"D":{"ha":935,"x_min":0,"x_max":0,"o":"m 625 717 b 976 543 858 707 976 647 b 750 233 976 443 892 314 b 386 132 636 169 496 132 b 293 165 325 132 293 142 b 536 554 293 178 363 328 b 625 707 586 621 625 663 b 625 717 625 711 625 714 z m 417 635 b 338 646 399 644 372 646 b 285 644 315 646 300 646 b 567 714 390 685 485 708 b 168 72 306 401 168 194 b 311 -24 168 1 211 -24 b 822 157 469 -24 661 39 b 1065 565 982 275 1065 415 b 653 908 1065 788 926 908 b 196 783 458 908 289 853 b 122 601 146 746 122 651 b 154 571 122 583 133 571 b 417 635 199 571 279 615 z "},"E":{"ha":858,"x_min":0,"x_max":0,"o":"m 913 222 b 399 26 729 97 582 26 b 264 79 310 26 264 44 b 394 217 264 104 308 163 b 700 324 472 265 572 299 b 828 356 765 336 801 332 b 886 451 865 389 886 435 b 651 493 886 490 811 486 b 403 549 482 501 403 510 b 482 625 403 572 429 594 b 815 713 578 681 700 713 b 872 711 828 713 849 713 b 772 614 804 669 772 631 b 782 607 772 610 775 607 b 983 703 783 607 851 638 b 1043 794 1026 724 1043 736 b 1043 811 1043 801 1043 806 b 1026 879 1043 847 1042 865 b 839 911 1008 894 939 911 b 422 801 675 911 528 871 b 265 576 317 731 265 657 b 626 401 265 457 382 404 b 122 35 297 339 122 185 b 386 -160 122 -86 215 -160 b 818 -21 542 -160 714 -101 b 917 174 883 31 917 88 b 913 222 917 186 915 201 z "},"F":{"ha":815,"x_min":0,"x_max":0,"o":"m 576 190 b 432 22 532 135 483 78 b 224 -210 317 -7 224 -137 b 253 -236 224 -224 238 -236 b 711 203 310 -236 485 -99 b 835 247 778 219 819 228 b 922 388 842 254 878 304 b 876 389 897 389 881 389 b 828 388 858 389 842 388 b 1024 853 965 619 1024 781 b 879 918 1024 910 979 918 b 500 863 778 918 651 900 b 281 796 372 831 297 804 b 178 681 240 776 208 738 b 122 535 138 603 122 546 b 160 499 122 514 138 499 b 283 540 181 499 219 521 b 396 583 357 564 396 568 b 376 596 396 592 389 596 b 356 596 363 596 356 596 l 290 594 b 825 729 553 696 742 729 b 861 708 851 729 861 725 b 714 390 861 661 811 556 b 324 201 442 356 324 311 b 376 176 324 188 342 176 b 576 190 436 176 503 182 z "},"G":{"ha":839,"x_min":0,"x_max":0,"o":"m 668 279 b 454 -78 550 53 471 -64 b 314 -190 417 -108 364 -142 b 218 -375 250 -250 218 -326 b 263 -428 218 -407 235 -428 b 458 -292 300 -428 371 -382 b 590 -133 524 -224 560 -164 b 958 163 629 -94 769 -19 l 949 213 b 681 33 849 129 760 72 b 922 478 850 303 922 460 b 849 529 922 499 875 529 b 608 335 815 529 764 464 b 279 107 429 186 328 107 b 236 154 253 107 236 128 b 468 479 236 224 310 347 b 831 693 589 579 724 656 l 753 617 b 736 592 743 607 736 600 b 749 578 736 585 742 578 b 889 654 760 578 806 604 b 1008 763 965 700 1008 726 b 935 879 1008 872 983 879 b 439 685 818 879 631 818 b 122 207 228 538 122 368 b 263 3 122 83 182 3 b 668 279 331 3 461 97 z "},"H":{"ha":1014,"x_min":0,"x_max":0,"o":"m 499 192 b 732 213 561 196 639 207 b 646 1 669 121 646 35 b 683 -40 646 -26 660 -40 b 792 29 724 -40 792 -1 b 788 63 792 42 788 53 b 857 211 788 85 811 133 b 878 211 864 211 872 211 b 982 204 913 211 947 208 b 1119 363 1063 304 1119 346 b 981 406 1119 383 1074 397 b 1218 783 1097 579 1218 674 b 1203 804 1218 799 1215 804 b 868 413 1183 804 1072 672 b 686 399 804 410 743 407 b 957 778 854 575 957 667 b 797 904 957 881 913 904 b 181 732 624 904 419 846 b 122 561 140 672 122 603 b 158 517 122 532 135 517 b 214 536 168 517 186 522 l 408 629 l 347 631 b 794 765 518 724 675 765 b 847 742 833 765 847 763 b 531 379 847 715 743 592 b 310 339 393 347 319 342 b 238 243 276 329 238 276 b 350 185 238 204 272 196 b 249 24 288 101 249 53 b 307 -35 249 -12 279 -35 b 499 192 338 -35 368 56 z "},"I":{"ha":546,"x_min":0,"x_max":0,"o":"m 418 92 b 746 775 640 394 746 625 b 621 900 746 856 697 900 b 236 699 542 900 361 831 b 122 493 161 621 122 521 b 231 382 122 456 196 382 b 303 429 247 382 264 401 b 368 488 343 458 368 471 b 344 504 368 499 360 504 b 285 488 332 504 314 499 b 642 751 350 614 481 713 b 482 378 632 639 568 524 b 260 15 357 168 260 56 b 326 -50 260 -6 303 -50 b 421 67 357 -50 421 32 b 418 92 421 75 421 83 z "},"J":{"ha":710,"x_min":0,"x_max":0,"o":"m 554 369 b 551 369 553 369 553 369 b 431 304 518 369 482 344 b 576 626 449 428 496 532 b 813 804 663 726 738 788 b 515 133 785 660 686 438 b 122 -306 256 -14 122 -197 b 168 -367 122 -346 142 -367 b 604 118 226 -367 363 -201 b 851 211 701 169 783 199 l 851 256 b 646 194 800 254 731 233 b 918 838 833 519 918 739 b 832 925 918 883 878 925 b 468 719 739 925 588 856 b 272 224 349 582 272 371 b 310 163 272 182 288 163 b 554 369 350 163 428 233 z "},"K":{"ha":908,"x_min":0,"x_max":0,"o":"m 458 247 b 775 40 508 208 618 147 b 1000 -94 908 -50 983 -94 b 1024 -29 1019 -94 1024 -75 b 546 374 1024 92 867 175 l 597 450 b 1056 678 883 601 1036 678 b 1068 678 1060 678 1064 678 b 1186 819 1101 678 1186 779 b 1164 832 1186 828 1178 832 b 1033 775 1150 832 1107 814 l 694 596 b 800 771 756 693 800 736 b 704 888 800 806 758 888 b 286 769 646 888 501 857 l 315 796 b 333 818 326 807 333 813 b 331 821 333 819 332 821 b 190 738 315 821 258 792 b 122 554 151 706 122 608 b 154 517 122 529 131 517 b 386 621 192 517 263 561 b 696 735 506 678 606 722 b 567 532 663 671 621 603 l 525 510 b 376 356 426 457 376 439 b 393 303 376 336 382 321 l 286 160 b 181 -12 218 68 181 13 b 208 -39 181 -28 190 -39 b 458 247 289 -39 351 85 z "},"L":{"ha":915,"x_min":0,"x_max":0,"o":"m 306 3 b 814 -111 572 -40 736 -111 b 986 21 861 -111 910 -65 b 496 164 829 65 676 138 b 992 717 671 322 788 546 b 897 564 979 665 940 619 b 796 342 833 482 796 413 b 818 308 796 317 800 308 b 992 435 846 308 915 350 l 976 454 b 1138 806 1082 619 1138 735 b 1089 872 1138 836 1108 872 b 819 676 1056 872 949 810 b 399 171 638 488 525 301 b 238 138 321 164 268 156 b 122 -25 186 107 122 1 b 175 -39 122 -37 138 -39 b 306 3 226 -39 261 -19 z "},"M":{"ha":1136,"x_min":0,"x_max":0,"o":"m 1246 197 b 1007 42 1133 88 1038 42 b 972 93 979 42 972 56 b 1197 539 972 194 1046 343 b 1336 732 1282 647 1336 693 b 1271 847 1336 767 1300 847 b 758 382 1228 847 1044 699 b 958 776 896 596 958 731 b 892 874 958 836 906 874 b 428 431 857 874 671 754 b 585 790 532 586 585 714 b 503 924 585 836 549 924 b 219 813 474 924 372 892 l 265 857 b 283 882 278 869 283 879 b 276 889 283 883 281 889 b 172 804 269 889 208 854 b 122 629 143 763 122 681 b 149 601 122 611 129 601 b 301 679 176 601 224 635 b 457 757 390 731 442 757 b 478 740 468 757 478 749 b 293 378 478 699 421 574 b 138 121 204 243 138 178 b 199 -6 138 57 174 -6 b 403 260 240 -6 288 89 b 808 718 546 469 675 624 b 453 82 653 364 453 197 b 494 -44 453 19 479 -44 b 672 146 519 -44 572 22 b 1103 597 804 310 940 465 b 808 86 900 369 808 185 b 907 -90 808 -25 844 -90 b 1246 140 963 -90 1104 -22 z "},"N":{"ha":913,"x_min":0,"x_max":0,"o":"m 1057 238 b 811 63 933 121 853 63 b 772 107 785 63 772 76 b 928 392 772 163 825 256 b 1125 744 1039 540 1125 639 b 1063 850 1125 799 1092 850 b 458 318 1011 850 785 696 b 749 849 647 593 749 768 b 651 928 749 896 707 928 b 324 808 590 928 481 889 l 379 857 b 396 876 389 864 396 868 b 389 882 396 881 393 882 b 231 769 376 882 322 844 b 122 588 157 708 122 638 b 136 557 122 567 126 557 b 335 651 154 557 218 594 b 560 735 461 713 539 735 b 589 714 581 735 589 729 b 449 456 589 685 539 601 b 226 90 308 231 226 114 b 307 7 226 61 288 7 b 564 293 329 7 407 110 b 960 656 706 460 840 579 b 793 411 933 594 868 522 b 599 -17 665 224 599 85 b 678 -114 599 -74 631 -114 b 1058 178 740 -114 901 -21 z "},"O":{"ha":760,"x_min":0,"x_max":0,"o":"m 728 692 b 857 747 811 733 857 725 b 811 826 857 761 843 789 b 736 871 783 857 771 871 b 354 667 683 871 510 806 b 122 240 201 528 122 376 b 328 -40 122 86 215 -40 b 726 178 479 -40 618 33 b 878 574 828 314 878 468 b 764 694 878 657 842 694 b 728 692 760 694 749 693 z m 379 374 b 728 628 483 549 658 628 b 776 571 761 628 776 610 b 622 260 776 515 729 392 b 301 46 504 114 374 46 b 242 115 265 46 242 69 b 378 425 242 182 289 329 z "},"P":{"ha":904,"x_min":0,"x_max":0,"o":"m 447 363 l 481 413 b 622 444 550 421 597 433 b 539 456 604 454 576 456 b 507 453 531 456 518 454 l 638 636 b 681 731 663 671 676 700 b 971 621 874 719 971 682 b 840 439 971 578 924 500 b 561 353 764 383 665 353 b 447 363 525 353 488 356 z m 340 204 b 468 189 383 194 425 189 b 892 311 626 189 781 236 b 1056 631 999 383 1056 493 b 663 926 1056 822 914 926 b 306 867 543 926 406 901 b 242 817 267 854 258 840 b 147 654 178 725 147 661 b 154 638 147 644 149 638 b 614 732 181 638 338 717 b 383 442 507 611 432 513 b 194 308 264 425 194 371 b 249 232 194 278 214 258 b 122 -42 156 89 122 -17 b 156 -87 122 -71 136 -87 b 244 -4 186 -87 210 -58 b 283 78 269 36 283 63 b 274 94 283 86 281 89 z "},"Q":{"ha":881,"x_min":0,"x_max":0,"o":"m 469 199 b 1019 760 836 432 1019 621 b 839 919 1019 838 943 919 b 335 735 688 919 465 843 b 239 617 271 682 239 646 b 283 461 239 531 256 461 b 444 524 306 461 354 492 b 526 561 497 543 526 542 b 496 576 526 568 517 576 b 413 571 474 576 446 575 b 874 779 622 725 806 779 b 910 758 900 779 910 776 b 333 206 910 653 717 469 b 194 171 260 196 214 185 b 122 14 161 146 122 65 b 143 -14 122 -7 125 -14 b 268 25 172 -14 208 25 b 746 -32 368 25 538 -32 b 875 0 817 -32 857 -22 b 940 153 908 40 940 142 b 924 171 940 167 936 171 b 813 156 918 171 893 156 b 469 199 708 156 597 172 z "},"R":{"ha":911,"x_min":0,"x_max":0,"o":"m 500 465 b 653 740 585 586 649 661 b 814 750 735 747 789 750 b 1033 696 961 750 1033 732 b 500 465 1033 640 857 540 z m 350 238 b 932 -39 728 64 915 -39 b 958 13 953 -39 958 -22 b 906 168 958 107 957 135 b 429 354 875 188 718 258 l 440 372 b 1122 733 897 422 1122 503 b 743 929 1122 861 994 929 b 356 871 628 929 494 910 b 247 829 300 856 264 840 b 156 653 199 794 156 694 b 208 622 156 635 174 622 b 415 653 333 622 415 638 b 396 660 415 660 410 658 l 311 668 b 588 733 400 699 492 719 l 386 444 b 207 324 260 440 207 343 b 267 276 207 306 228 294 b 122 1 165 126 122 29 b 149 -29 122 -18 133 -29 b 238 58 161 -29 219 6 b 350 238 251 96 297 149 z "},"S":{"ha":893,"x_min":0,"x_max":0,"o":"m 267 164 b 317 206 289 174 304 188 b 185 167 246 200 200 183 b 122 49 154 133 122 61 b 361 -40 122 7 206 -40 b 824 60 557 -40 732 6 b 949 261 899 104 949 213 b 688 469 949 332 857 415 b 442 571 521 522 442 528 b 858 722 442 619 611 722 b 908 721 879 722 894 721 b 810 631 846 675 810 651 b 828 615 810 619 817 615 b 885 646 839 615 853 628 b 1019 711 946 679 994 697 b 1088 850 1065 736 1088 789 b 881 911 1088 883 1011 911 b 388 765 668 911 460 832 b 314 546 340 721 314 639 b 556 399 314 467 388 439 b 825 282 729 357 825 328 b 721 210 825 253 789 233 b 392 156 619 175 504 156 b 267 164 357 156 315 158 z "},"T":{"ha":722,"x_min":0,"x_max":0,"o":"m 624 129 b 975 747 783 488 975 650 b 922 883 975 778 947 857 b 701 919 899 910 824 919 b 201 825 422 919 224 842 b 122 607 168 799 122 676 b 261 557 122 563 142 557 b 339 572 313 557 339 561 b 321 588 339 578 332 585 l 239 608 b 863 714 410 678 618 714 b 875 714 867 714 872 714 b 432 -19 547 326 432 46 b 489 -89 432 -57 464 -89 b 582 -10 511 -89 544 -64 b 643 108 625 53 643 100 b 624 129 643 121 636 128 z "},"U":{"ha":965,"x_min":0,"x_max":0,"o":"m 878 514 b 679 85 751 321 679 185 b 778 -39 679 6 718 -39 b 1086 174 849 -39 983 38 l 1083 233 b 863 88 978 133 901 88 b 822 138 835 88 822 103 b 993 490 822 221 889 331 b 1147 761 1089 636 1147 717 b 1099 857 1147 819 1121 857 b 785 531 1060 857 978 736 b 399 171 565 294 442 171 b 390 182 393 171 390 175 b 596 521 390 240 467 346 b 753 831 685 642 753 701 b 674 924 753 897 731 924 b 457 881 651 924 571 914 b 251 788 376 857 307 826 b 138 644 203 754 167 707 b 99 540 113 590 99 554 b 142 506 99 521 115 506 b 592 718 232 506 369 633 b 401 461 550 640 479 561 b 213 111 283 311 213 207 b 317 -25 213 35 271 -25 b 878 514 389 -25 568 160 z "},"V":{"ha":681,"x_min":0,"x_max":0,"o":"m 167 521 b 528 735 247 593 368 667 b 240 129 347 451 240 263 b 296 -12 240 69 256 29 b 371 -61 326 -43 360 -61 b 688 304 403 -61 525 58 b 938 761 849 550 938 692 b 907 804 938 789 924 804 b 814 722 882 804 851 778 b 757 592 778 667 757 624 b 760 572 757 589 758 582 b 396 81 590 299 468 135 b 361 151 372 100 361 121 b 554 560 361 218 429 350 b 706 815 647 715 706 788 b 617 926 706 858 663 926 b 406 857 592 926 518 904 b 126 699 294 810 199 756 b 22 471 36 629 22 569 b 42 429 22 442 32 429 b 192 483 51 429 99 454 b 300 521 267 507 300 507 b 278 532 300 526 292 532 b 232 529 260 532 244 529 b 167 521 226 529 206 526 z "},"W":{"ha":1082,"x_min":0,"x_max":0,"o":"m 743 468 b 622 117 669 344 622 240 b 740 -14 622 44 701 -14 b 1071 276 808 -14 938 71 b 1258 728 1210 492 1258 683 b 1231 808 1258 753 1250 779 b 1129 676 1163 750 1129 703 b 1136 619 1129 661 1132 643 b 729 139 1021 381 886 221 b 899 497 731 214 789 329 b 1043 739 988 632 1043 704 b 994 819 1043 775 1017 819 b 733 569 964 819 876 736 b 329 165 549 356 415 219 b 518 444 350 250 421 335 b 689 751 628 571 689 664 b 540 904 689 871 644 904 b 307 849 469 904 394 883 l 318 874 b 140 778 225 843 161 800 b 78 590 114 750 78 647 b 101 558 78 567 85 558 b 308 658 142 558 200 607 b 535 733 417 710 494 733 b 569 703 558 733 569 721 b 325 407 569 654 463 567 b 182 163 232 299 182 224 b 272 0 182 94 238 0 b 743 468 331 0 504 143 z "},"X":{"ha":776,"x_min":0,"x_max":0,"o":"m 571 329 l 567 119 b 567 92 567 111 567 101 b 643 -43 567 3 581 -43 b 835 81 696 -43 749 4 b 897 165 878 118 897 149 b 883 185 897 175 889 185 b 735 107 867 185 778 107 b 708 154 717 107 708 122 b 729 510 708 250 715 368 l 922 713 l 943 711 b 1024 851 996 760 1024 824 b 999 883 1024 869 1013 883 b 933 833 983 883 964 864 l 746 647 b 758 839 754 731 758 794 b 682 943 758 914 744 943 b 432 890 642 943 551 931 b 235 790 343 861 278 829 b 126 565 161 725 126 619 b 144 544 126 551 132 544 b 285 593 160 544 201 568 b 342 619 319 603 342 603 b 313 629 342 625 331 629 b 244 622 300 629 278 626 b 596 778 333 686 453 740 b 597 732 596 763 597 747 b 583 492 597 658 593 578 l 351 238 b 149 4 221 185 149 49 b 179 -33 149 -17 163 -33 b 571 329 211 -33 350 83 z "},"Y":{"ha":842,"x_min":0,"x_max":0,"o":"m 781 433 b 361 -300 503 50 361 -189 b 419 -365 361 -339 389 -365 b 674 -135 461 -365 515 -274 b 907 83 814 -12 907 44 b 883 99 907 94 899 99 b 625 -21 857 99 753 71 b 1019 619 835 383 1019 569 b 960 710 1019 646 981 710 b 708 482 932 710 851 631 b 394 238 554 319 451 238 b 383 251 388 238 383 243 b 589 551 383 293 458 385 b 760 853 699 692 760 790 b 664 915 760 890 726 915 b 357 818 578 915 479 882 b 172 699 269 772 208 731 b 96 504 129 661 96 550 b 107 483 96 489 99 483 b 313 581 122 483 197 513 b 576 718 453 664 536 718 b 583 713 582 718 583 715 b 386 447 583 672 506 593 b 181 90 240 269 181 138 b 267 1 181 46 224 1 b 781 433 304 1 499 135 z "},"Z":{"ha":750,"x_min":0,"x_max":0,"o":"m 636 118 b 244 -264 553 -71 428 -194 b 636 118 308 -151 440 -14 z m 867 290 b 767 251 829 276 794 264 b 600 418 754 347 694 407 b 906 732 804 514 906 633 b 700 915 906 836 832 915 b 410 829 624 915 526 886 b 218 708 315 783 253 742 b 124 436 151 647 124 560 b 125 388 124 421 124 406 b 719 699 399 618 658 699 b 763 668 749 699 763 689 b 331 346 763 593 611 507 b 240 269 292 324 263 306 b 196 132 214 224 196 156 b 208 106 196 115 200 106 b 374 192 231 106 283 142 b 589 274 463 242 531 274 b 650 211 622 274 650 249 b 647 189 650 206 649 197 b 131 -281 285 7 131 -201 b 225 -375 131 -322 193 -375 b 567 -165 269 -375 429 -308 b 767 190 689 -40 754 81 b 867 246 804 210 836 226 z "},"[":{"ha":386,"x_min":0,"x_max":0,"o":"m 144 -192 b 503 782 339 250 456 575 l 561 782 b 579 782 568 782 574 782 b 653 853 631 782 646 790 b 622 853 642 853 632 853 b 433 858 506 853 443 858 b 404 815 418 858 404 829 b 411 801 404 810 407 806 b 25 -224 181 135 25 -190 b 131 -265 25 -258 57 -265 b 258 -206 210 -265 258 -264 b 229 -190 258 -194 247 -190 z "},"\\":{"ha":533,"x_min":0,"x_max":0,"o":"m 397 -18 b 383 -62 388 -33 383 -46 b 440 -154 383 -104 406 -154 b 507 -124 463 -154 490 -144 b 522 17 517 -74 522 -26 b 493 361 522 75 515 190 b 433 699 474 504 451 619 b 340 885 404 824 374 885 b 310 821 319 885 310 864 b 361 461 310 785 335 667 b 397 36 386 263 397 119 b 397 -18 397 21 397 3 z "},"]":{"ha":386,"x_min":0,"x_max":0,"o":"m 451 793 b 93 -181 258 353 139 26 l 33 -181 b 17 -181 26 -181 22 -181 b -57 -250 -35 -181 -51 -189 b -28 -250 -47 -250 -36 -250 b 161 -257 89 -250 153 -257 b 192 -214 178 -257 192 -226 b 183 -199 192 -208 188 -204 b 572 826 415 465 572 792 b 465 867 572 860 539 867 b 338 807 386 867 338 865 b 367 792 338 796 347 792 z "},"^":{"ha":382,"x_min":0,"x_max":0,"o":"m 451 669 b 481 581 478 621 476 590 b 528 569 485 571 494 569 b 539 601 532 569 539 582 b 488 747 539 700 522 747 b 410 718 446 747 433 738 l 283 615 b 260 589 269 604 260 593 b 286 572 260 579 269 572 b 451 669 339 572 376 618 z "},"_":{"ha":618,"x_min":0,"x_max":0,"o":"m 0 -144 l 0 -256 l 660 -256 l 660 -144 z "},"‘":{"ha":244,"x_min":0,"x_max":0,"o":"m 375 760 b 413 743 389 750 400 743 b 497 858 446 743 497 824 b 464 893 497 879 485 893 b 372 832 431 893 404 872 b 306 703 326 774 306 722 b 317 682 306 690 310 682 b 375 760 335 682 342 713 z "},"a":{"ha":599,"x_min":0,"x_max":0,"o":"m 526 408 b 213 118 372 210 244 118 b 190 153 200 118 190 132 b 526 408 190 257 307 315 z m 421 181 b 389 50 403 122 389 82 b 461 -29 389 3 422 -29 b 740 201 525 -29 606 56 l 739 258 b 550 129 650 175 593 129 b 513 161 526 129 513 140 b 614 363 513 233 614 325 b 606 388 614 369 610 378 l 583 435 l 607 449 b 631 472 624 458 631 463 b 568 540 631 496 599 540 b 429 503 557 540 506 532 b 217 382 347 472 279 433 b 88 188 133 311 88 240 b 193 -1 88 103 164 -1 b 421 181 231 -1 306 60 z "},"b":{"ha":479,"x_min":0,"x_max":0,"o":"m 417 115 b 451 107 429 110 439 107 b 629 204 490 107 554 138 l 628 260 b 501 186 574 214 535 186 b 465 200 488 186 476 190 b 528 388 508 274 528 340 b 503 426 528 413 519 426 b 413 375 492 426 453 411 b 324 222 353 319 324 261 b 338 165 324 201 326 183 b 244 93 301 118 274 93 b 201 182 214 93 201 119 b 204 238 201 199 203 218 b 671 878 524 544 671 776 b 643 928 671 910 658 928 b 394 740 619 928 522 868 b 90 181 192 539 90 342 b 200 -35 90 47 135 -35 b 417 115 251 -35 326 14 z m 249 367 b 581 825 303 500 414 653 b 249 367 532 686 413 544 z "},"c":{"ha":401,"x_min":0,"x_max":0,"o":"m 549 257 b 260 92 432 147 338 92 b 179 181 210 92 179 124 b 179 194 179 185 179 189 b 332 326 210 239 260 282 b 360 281 333 294 340 281 b 490 458 396 281 490 382 b 429 513 490 496 471 513 b 211 407 388 513 297 479 b 85 175 126 336 85 256 b 231 -33 85 63 158 -33 b 549 199 304 -33 413 43 z "},"d":{"ha":554,"x_min":0,"x_max":0,"o":"m 446 375 b 371 264 425 308 396 286 b 182 122 268 171 207 122 b 172 143 174 122 172 129 b 446 375 172 250 263 307 z m 386 194 b 375 74 378 149 375 110 b 436 -31 375 3 389 -31 b 713 200 507 -31 581 53 l 713 257 b 507 101 601 161 542 101 b 481 133 493 101 481 118 b 578 426 481 196 517 339 b 771 751 697 597 771 699 b 724 811 771 786 744 811 b 481 458 697 811 618 694 b 424 488 465 481 449 488 b 199 388 379 488 296 457 b 79 213 118 331 79 275 b 161 1 79 82 131 1 b 386 194 189 1 263 65 z "},"e":{"ha":442,"x_min":0,"x_max":0,"o":"m 219 251 b 435 435 288 382 400 435 b 444 419 442 435 444 431 b 219 251 444 382 368 319 z m 214 196 b 546 449 425 246 546 374 b 451 507 546 488 515 507 b 207 394 369 507 286 469 b 89 156 129 321 89 240 b 238 -21 89 39 143 -21 b 578 199 340 -21 446 54 l 578 257 b 300 92 461 144 363 92 b 214 189 250 92 214 128 b 214 196 214 192 214 193 z "},"f":{"ha":364,"x_min":0,"x_max":0,"o":"m 114 29 b 190 6 136 19 161 13 b 192 -26 192 -8 192 -18 b 63 -275 192 -129 124 -251 b 46 -189 51 -244 46 -215 b 114 29 46 -119 69 -49 z m 300 26 b 492 197 360 56 422 114 l 493 257 b 276 94 428 194 354 139 b 200 196 256 133 229 168 b 372 450 286 344 351 421 b 518 771 456 561 518 654 b 492 819 518 804 507 819 b 224 415 447 819 349 686 b 126 261 189 357 158 304 b 97 263 111 263 101 263 b 13 160 42 263 13 224 b 43 86 13 129 21 108 b -68 -229 -33 -43 -68 -151 b 1 -396 -68 -329 -33 -396 b 190 -257 31 -396 114 -350 b 301 1 264 -169 301 -75 b 300 26 301 11 301 18 z "},"g":{"ha":568,"x_min":0,"x_max":0,"o":"m 436 183 b 343 -10 400 88 367 22 b 83 -349 161 -158 83 -287 b 115 -385 83 -372 97 -385 b 414 -53 154 -385 292 -279 b 703 197 524 42 624 118 l 703 257 b 485 83 614 175 539 121 l 564 247 b 604 360 586 294 604 329 b 568 428 604 397 586 428 b 403 263 533 428 490 361 b 208 117 317 164 249 117 b 178 144 192 117 178 128 b 376 349 178 231 257 288 b 547 479 485 403 547 439 b 472 517 547 497 513 517 b 204 376 419 517 325 471 b 86 178 126 315 86 242 b 185 -1 86 81 131 -1 b 436 183 215 -1 326 54 z "},"h":{"ha":517,"x_min":0,"x_max":0,"o":"m 664 256 b 464 113 567 160 499 113 b 436 140 449 113 436 124 b 540 313 436 172 474 226 b 583 382 568 349 583 369 b 521 450 583 407 543 450 b 178 163 485 450 361 360 l 185 228 b 663 869 519 607 663 835 b 610 907 663 883 636 907 b 275 554 586 907 450 794 b 103 274 179 424 124 329 b 86 156 88 231 86 194 b 86 124 86 144 86 135 b 129 1 86 44 93 1 b 426 300 179 1 243 138 b 310 58 353 189 310 113 b 374 -26 310 6 336 -26 b 665 199 439 -26 535 50 z "},"i":{"ha":331,"x_min":0,"x_max":0,"o":"m 338 561 b 382 515 338 535 356 515 b 486 636 431 515 486 590 b 446 679 486 665 472 679 b 338 561 396 679 338 619 z m 468 257 b 251 113 367 158 290 113 b 188 175 214 113 188 138 b 194 219 188 189 190 203 b 368 449 314 321 368 404 b 324 486 368 474 353 486 b 207 422 281 486 247 463 b 78 160 117 333 78 258 b 193 -14 78 47 122 -14 b 469 199 271 -14 356 60 z "},"j":{"ha":485,"x_min":0,"x_max":0,"o":"m 429 546 b 493 508 429 522 453 508 b 594 651 546 508 594 607 b 547 699 594 682 578 699 b 467 639 507 699 492 681 b 429 546 443 599 429 571 z m 575 258 b 307 39 479 171 393 97 l 431 268 b 493 433 467 335 493 386 b 443 476 493 457 474 476 b 164 379 426 476 300 446 b 101 251 129 363 101 274 b 118 235 101 240 106 235 b 360 314 153 235 229 283 b 188 -25 271 104 199 -11 b 60 -164 167 -54 115 -94 b -10 -328 13 -222 -10 -283 b 19 -379 -10 -360 3 -379 b 226 -121 50 -379 124 -294 b 575 197 286 -44 414 49 z "},"k":{"ha":557,"x_min":0,"x_max":0,"o":"m 293 201 b 500 365 399 317 481 365 b 507 358 504 365 507 364 b 350 192 507 328 454 275 z m 244 138 b 403 -31 297 25 340 -31 b 692 203 463 -31 557 49 l 690 261 b 449 81 567 139 485 81 b 381 142 431 81 408 100 b 618 406 532 253 618 313 b 556 489 618 451 588 489 b 165 174 506 489 364 390 l 172 221 b 650 846 496 578 650 796 b 621 879 650 865 638 879 b 301 588 593 879 465 786 b 83 140 154 407 83 279 b 118 -1 83 43 93 -1 b 244 138 142 -1 171 51 z "},"l":{"ha":356,"x_min":0,"x_max":0,"o":"m 250 347 b 490 728 294 476 375 604 b 250 347 442 567 365 440 z m 500 257 b 289 97 390 156 326 97 b 224 219 246 97 224 138 b 224 246 224 231 224 240 b 571 797 456 421 571 625 b 544 843 571 828 561 843 b 328 660 513 843 429 782 b 94 169 171 469 94 272 b 222 -26 94 64 149 -26 b 501 200 293 -26 367 58 z "},"m":{"ha":775,"x_min":0,"x_max":0,"o":"m 924 257 b 726 117 825 168 764 117 b 694 144 708 117 694 129 b 769 276 694 171 719 215 b 826 364 803 317 826 340 b 776 449 826 399 789 449 b 460 188 751 449 644 363 b 578 421 531 301 578 369 b 532 469 578 451 560 469 b 165 164 469 469 360 360 l 168 207 b 311 401 258 315 311 369 b 244 431 311 422 293 431 b 108 297 204 431 168 388 b 63 153 75 247 63 225 b 128 -4 63 46 97 -4 b 460 346 188 -4 235 163 b 307 44 364 197 307 101 b 361 -11 307 7 324 -11 b 690 301 419 -11 485 128 b 558 39 601 182 558 93 b 638 -31 558 -4 588 -31 b 922 199 713 -31 792 54 z "},"n":{"ha":499,"x_min":0,"x_max":0,"o":"m 60 206 b 58 171 58 189 58 176 b 128 1 58 65 89 1 b 410 297 171 1 229 129 b 294 60 333 192 294 114 b 364 -31 294 6 324 -31 b 646 200 435 -31 514 56 l 646 260 b 457 115 542 165 481 115 b 431 143 439 115 431 125 b 500 276 431 157 451 213 b 576 394 538 326 576 347 b 535 476 576 435 554 476 b 165 168 496 476 354 383 b 165 171 165 169 165 171 b 199 250 165 196 175 225 b 313 403 274 335 313 385 b 249 432 313 417 283 432 b 60 206 192 432 126 356 z "},"o":{"ha":458,"x_min":0,"x_max":0,"o":"m 306 132 b 208 83 272 99 238 83 b 157 135 175 83 157 100 b 368 364 157 197 229 307 b 303 172 325 283 303 219 b 306 132 303 161 304 147 z m 371 72 b 399 71 382 71 392 71 b 594 197 453 71 513 117 l 596 264 b 415 142 515 185 460 143 b 488 349 464 218 488 288 b 447 410 488 392 478 410 b 444 410 447 410 446 410 b 468 442 458 429 468 435 b 376 488 468 460 429 488 b 178 394 322 488 243 456 b 61 163 101 324 61 232 b 201 -21 61 49 126 -21 b 371 72 257 -21 314 11 z "},"p":{"ha":479,"x_min":0,"x_max":0,"o":"m 154 111 b 371 318 250 261 342 318 b 381 299 378 318 381 311 b 251 111 381 267 336 206 b 211 118 238 115 224 118 b 154 111 196 118 178 114 z m 81 -8 b 125 -15 97 -12 111 -15 b 174 -10 138 -15 154 -14 b 282 -40 199 -28 238 -40 b 628 197 356 -40 475 38 l 626 261 b 364 83 513 149 436 83 b 332 90 357 83 347 86 b 525 399 464 210 525 319 b 476 451 525 435 510 451 b 219 283 444 451 340 401 l 290 404 b 426 611 361 525 426 571 b 385 638 426 625 410 638 b 260 553 340 638 301 608 b 6 243 192 463 121 350 l 6 181 b 163 342 61 233 115 286 l 61 143 b -18 14 11 44 -15 18 b -124 -272 -86 -78 -124 -168 b -92 -325 -124 -306 -110 -325 b 81 -8 -56 -325 -4 -218 z "},"q":{"ha":560,"x_min":0,"x_max":0,"o":"m 368 3 l 413 -11 b 215 -264 411 -86 344 -187 b 368 3 229 -208 282 -121 z m 519 397 b 160 115 350 197 203 115 b 151 122 154 115 151 118 b 519 397 151 244 268 317 z m 394 161 b 101 -307 208 -89 101 -233 b 157 -392 101 -349 122 -392 b 386 -217 189 -392 286 -331 b 513 18 471 -122 513 -36 b 511 31 513 22 511 26 b 696 200 581 78 639 138 l 694 258 b 494 94 586 157 528 94 b 442 113 486 94 469 104 b 604 369 544 253 604 333 b 583 418 604 383 596 399 b 594 442 590 428 594 435 b 543 501 594 481 578 501 b 213 390 444 501 301 457 b 67 144 108 313 67 240 b 171 3 67 53 117 3 b 394 161 210 3 279 60 z "},"r":{"ha":446,"x_min":0,"x_max":0,"o":"m 75 142 b 228 294 113 171 161 224 b 361 319 271 300 315 308 b 226 76 274 229 226 158 b 311 -26 226 14 268 -26 b 593 200 367 -26 457 51 l 593 258 b 389 104 483 158 419 104 b 354 144 367 104 354 118 b 440 296 354 171 382 235 b 506 372 474 331 506 349 b 438 460 506 435 481 460 b 392 457 425 460 410 458 l 282 450 b 297 488 293 469 297 483 b 281 506 297 497 290 506 b 114 319 231 506 114 394 b 146 274 114 303 125 286 l 57 186 z "},"s":{"ha":456,"x_min":0,"x_max":0,"o":"m 144 193 b 325 367 208 253 271 308 b 342 261 336 326 342 292 b 256 117 342 197 317 158 b 156 194 224 168 194 194 b 144 193 153 194 149 193 z m 603 256 b 335 83 481 140 390 83 b 293 90 322 83 310 86 b 471 339 390 118 471 231 b 446 490 471 411 446 463 b 449 514 446 496 449 504 b 425 536 449 529 443 536 b 331 451 367 536 343 514 b 129 240 297 410 231 340 l 129 190 b 83 126 100 178 83 156 b 264 -28 83 54 178 -28 b 604 199 347 -28 461 47 z "},"t":{"ha":376,"x_min":0,"x_max":0,"o":"m 160 206 b 113 49 126 144 113 90 b 193 -35 113 -4 142 -35 b 524 199 263 -35 378 42 l 522 256 b 283 89 399 144 321 89 b 249 128 261 89 249 101 b 368 403 249 190 283 297 b 408 401 378 401 390 401 b 486 432 442 401 460 408 b 568 540 542 483 568 536 b 499 565 568 553 544 563 l 554 631 b 571 665 565 643 571 653 b 543 685 571 675 557 685 b 382 567 460 685 440 646 b 247 543 315 567 271 560 b 167 429 213 518 167 444 b 179 421 167 424 171 421 b 206 421 189 421 199 421 b 275 414 226 421 250 418 b 118 232 228 353 175 293 l 119 176 b 160 206 132 186 146 196 z "},"u":{"ha":558,"x_min":0,"x_max":0,"o":"m 379 176 b 344 49 354 119 344 76 b 424 -35 344 -1 376 -35 b 708 199 490 -35 574 47 l 708 258 b 507 110 601 164 539 110 b 475 140 490 110 475 122 b 615 378 475 172 515 264 b 643 449 636 403 643 408 b 618 504 643 486 633 504 b 435 340 588 504 531 443 b 189 138 306 203 214 138 b 183 153 185 138 183 143 b 208 233 183 172 192 199 b 383 435 321 342 383 403 b 311 463 383 450 353 463 b 203 396 268 463 244 442 b 85 156 125 310 85 242 b 185 -3 85 56 146 -3 b 379 176 222 -3 286 57 z "},"v":{"ha":486,"x_min":0,"x_max":0,"o":"m 364 113 b 439 81 390 92 414 81 b 619 197 493 81 550 119 l 621 257 b 474 158 557 193 510 158 b 429 183 456 158 442 167 b 539 401 507 276 539 356 b 500 438 539 426 510 438 b 322 197 472 438 358 335 b 181 88 254 126 215 88 b 157 131 167 88 157 103 b 244 272 157 193 199 224 b 329 415 299 329 329 407 b 258 450 329 429 290 450 b 150 363 228 450 194 419 b 63 140 92 288 63 215 b 175 -32 63 42 124 -32 b 364 113 219 -32 274 21 z "},"w":{"ha":715,"x_min":0,"x_max":0,"o":"m 390 176 b 375 75 379 135 375 99 b 435 -15 375 19 400 -15 b 636 138 478 -15 550 35 b 710 99 665 113 688 99 b 861 200 749 99 804 132 l 861 258 b 744 182 811 210 775 182 b 704 201 728 182 718 189 b 793 406 767 285 793 358 b 763 453 793 435 779 453 b 644 347 739 453 696 418 b 597 239 613 303 597 263 b 599 219 597 233 597 226 b 485 100 540 142 508 100 b 468 122 471 100 468 107 b 543 329 468 154 489 225 b 599 440 574 388 599 422 b 542 461 599 453 574 461 b 440 353 524 461 507 428 b 194 121 307 199 225 121 b 182 149 186 121 182 131 b 196 224 182 169 188 194 b 401 467 338 349 401 438 b 324 506 401 488 364 506 b 199 411 286 506 251 471 b 85 176 124 328 85 256 b 194 6 85 83 144 6 b 390 176 221 6 288 63 z "},"x":{"ha":432,"x_min":0,"x_max":0,"o":"m 207 106 b 285 -29 214 14 235 -29 b 565 199 353 -29 435 56 l 565 258 b 364 108 458 161 393 108 b 321 175 335 108 321 129 b 325 238 321 197 322 218 l 418 329 l 464 339 b 543 446 514 390 543 419 b 522 468 543 458 533 468 b 328 335 488 468 426 421 b 347 481 342 408 347 458 b 307 526 347 506 328 526 b 138 390 289 526 231 483 b 89 328 106 358 89 340 b 101 311 89 319 96 311 b 222 381 110 311 142 347 b 211 222 221 328 217 275 b 33 15 94 114 33 46 b 53 -3 33 4 42 -3 b 207 106 69 -3 119 36 z "},"y":{"ha":550,"x_min":0,"x_max":0,"o":"m 396 150 b 171 -251 236 -81 171 -225 b 204 -350 171 -296 194 -350 b 686 200 224 -350 361 -158 l 686 260 b 381 -25 593 154 490 60 b 626 389 522 221 626 328 b 586 450 626 426 615 444 b 181 121 357 213 197 121 b 175 136 175 121 175 126 b 224 225 175 165 193 190 b 396 425 342 324 396 397 b 335 479 396 442 360 479 b 174 347 326 479 249 432 b 85 156 115 279 85 217 b 171 -12 85 74 140 -12 b 396 150 192 -12 276 36 z "},"z":{"ha":475,"x_min":0,"x_max":0,"o":"m 608 258 b 365 64 510 168 425 108 b 294 174 360 118 336 154 b 504 364 442 289 504 310 b 454 457 504 425 486 457 b 294 425 433 457 382 435 b 306 457 303 439 306 449 b 281 478 306 468 297 478 b 135 332 229 478 135 389 b 171 293 135 315 146 303 l 124 243 l 124 181 b 232 294 175 232 211 271 b 408 329 319 310 378 322 b 154 117 250 199 154 150 b 233 67 154 90 193 86 b 268 10 261 53 268 42 b 268 -1 268 6 268 3 b -3 -308 90 -118 -3 -214 b 40 -389 -3 -356 18 -389 b 261 -229 75 -389 172 -337 b 361 -24 321 -156 356 -81 b 608 199 447 33 532 108 z m 233 -114 b 57 -292 183 -214 128 -272 b 233 -114 107 -214 167 -158 z "},"{":{"ha":639,"x_min":0,"x_max":0,"o":"m 710 951 b 681 951 699 951 689 951 b 493 919 597 951 538 946 b 426 725 433 883 426 824 l 426 567 b 278 399 426 444 388 399 b 250 400 268 399 260 400 l 250 285 b 278 286 260 285 268 286 b 426 118 389 286 426 239 l 426 -42 b 493 -235 426 -140 435 -200 b 668 -267 535 -260 592 -267 b 710 -267 682 -267 694 -267 l 710 -153 b 681 -154 699 -153 689 -154 b 558 -14 578 -154 558 -118 l 558 140 b 428 342 558 258 536 315 b 558 543 536 368 558 424 l 558 699 b 679 838 558 804 578 838 b 710 836 688 838 699 836 z "},"|":{"ha":510,"x_min":0,"x_max":0,"o":"m 360 953 l 360 -256 l 474 -256 l 474 953 z "},"}":{"ha":639,"x_min":0,"x_max":0,"o":"m 265 951 l 265 836 b 296 838 276 836 286 838 b 415 699 396 838 415 804 l 415 543 b 547 342 415 425 438 368 b 415 140 439 315 415 258 l 415 -14 b 294 -154 415 -118 397 -154 b 265 -153 286 -154 276 -153 l 265 -267 b 294 -267 276 -267 286 -267 b 481 -235 376 -267 438 -261 b 547 -42 540 -199 547 -139 l 547 118 b 696 286 547 239 585 286 b 724 285 706 286 714 285 l 724 400 b 696 399 714 400 704 399 b 547 567 585 399 547 444 l 547 725 b 481 919 547 822 540 883 b 294 951 436 946 376 951 b 265 951 286 951 276 951 z "},"~":{"ha":382,"x_min":0,"x_max":0,"o":"m 294 569 b 386 646 342 569 344 646 b 518 582 424 646 463 582 b 604 707 565 582 604 660 b 582 733 604 725 596 733 b 503 654 544 733 544 654 b 369 722 469 654 428 722 b 268 600 315 722 268 640 b 294 569 268 581 278 569 z "},"¡":{"ha":388,"x_min":0,"x_max":0,"o":"m 250 179 b -81 -339 53 -157 -81 -317 b -36 -374 -81 -354 -65 -362 l 6 -389 b 26 -396 14 -393 21 -396 b 196 -157 56 -396 101 -315 b 356 167 311 35 356 153 b 288 243 356 190 300 243 b 242 193 275 243 242 210 b 250 179 242 188 244 185 z m 433 418 b 356 486 433 464 392 486 b 290 340 326 486 290 418 b 371 265 290 303 331 265 b 433 418 397 265 433 356 z "},"¢":{"ha":640,"x_min":0,"x_max":0,"o":"m 489 288 b 682 440 621 333 682 367 b 664 478 682 464 675 478 b 513 417 644 478 599 443 l 581 606 b 618 610 594 608 608 610 b 647 606 625 610 635 607 l 631 572 b 726 667 697 582 726 613 b 649 729 726 714 708 729 b 626 729 643 729 635 729 l 663 799 b 675 831 671 814 675 826 b 651 842 675 838 668 842 b 532 717 589 842 572 810 b 272 425 374 685 272 560 b 400 288 272 338 317 290 b 388 217 393 254 388 232 b 468 132 388 171 438 132 b 486 160 479 132 486 143 b 485 215 486 175 485 193 b 489 288 485 231 485 256 z m 425 403 b 401 401 411 403 404 401 b 351 439 367 401 351 415 b 485 581 351 465 394 539 z "},"£":{"ha":886,"x_min":0,"x_max":0,"o":"m 460 101 b 533 250 508 161 533 208 b 528 289 533 261 532 275 b 542 289 533 289 538 289 b 747 267 638 289 707 267 b 768 301 761 267 768 278 b 499 367 768 336 676 360 b 468 468 482 408 468 439 b 586 603 468 511 508 557 b 815 668 660 646 738 668 b 926 651 851 668 889 663 b 918 606 926 628 918 613 b 931 593 918 599 925 593 b 1026 731 951 593 1026 671 b 824 840 1026 793 942 840 b 503 735 718 840 593 801 b 361 503 408 667 361 588 b 394 364 361 461 375 417 b 253 300 300 364 253 343 b 292 276 253 286 269 276 b 425 289 306 276 349 283 b 433 246 429 274 433 258 b 343 113 433 199 403 157 b 203 65 299 81 250 78 b 142 14 175 57 158 42 b 94 -90 108 -43 94 -85 b 115 -110 94 -101 103 -110 b 240 -58 138 -110 181 -94 b 319 -57 282 -57 310 -57 b 646 -76 464 -57 571 -76 b 796 60 708 -76 718 -61 b 460 101 653 64 546 101 z "},"⁄":{"ha":842,"x_min":0,"x_max":0,"o":"m 781 433 b 361 -300 503 50 361 -189 b 419 -365 361 -339 389 -365 b 674 -135 461 -365 515 -274 b 907 83 814 -12 907 44 b 883 99 907 94 899 99 b 625 -21 857 99 753 71 b 1019 619 835 383 1019 569 b 960 710 1019 646 981 710 b 708 482 932 710 851 631 b 394 238 554 319 451 238 b 383 251 388 238 383 243 b 589 551 383 293 458 385 b 760 853 699 692 760 790 b 664 915 760 890 726 915 b 357 818 578 915 479 882 b 172 699 269 772 208 731 b 96 504 129 661 96 550 b 107 483 96 489 99 483 b 313 581 122 483 197 513 b 576 718 453 664 536 718 b 583 713 582 718 583 715 b 386 447 583 672 506 593 b 181 90 240 269 181 138 b 267 1 181 46 224 1 b 781 433 304 1 499 135 z m 867 1029 b 907 985 867 1000 882 985 b 992 1067 950 985 992 1029 b 954 1104 992 1092 978 1104 b 867 1029 907 1104 867 1060 z m 1044 1029 b 1086 985 1044 1000 1061 985 b 1171 1067 1128 985 1171 1029 b 1132 1104 1171 1092 1156 1104 b 1044 1029 1085 1104 1044 1060 z "},"¥":{"ha":907,"x_min":0,"x_max":0,"o":"m 629 243 b 858 221 713 239 788 232 b 889 268 878 232 886 246 b 651 304 819 292 742 301 b 703 399 665 339 682 371 b 764 400 725 400 746 400 b 896 385 783 400 828 396 b 933 431 913 397 925 411 b 753 458 875 449 817 457 b 965 638 861 582 942 622 b 1021 742 1003 661 1021 671 b 1015 793 1021 756 1018 774 b 642 457 961 778 813 669 b 496 815 603 696 556 815 b 311 733 469 815 379 782 b 258 650 276 708 258 688 b 310 543 258 575 275 543 b 396 561 324 543 356 547 l 344 567 b 457 651 364 601 401 624 b 514 461 485 593 503 529 b 354 438 464 458 410 450 b 319 374 331 418 319 400 b 521 396 388 385 453 393 b 522 378 522 389 522 382 b 508 306 522 356 517 331 b 297 283 429 301 358 294 b 263 217 275 263 264 243 b 481 240 342 229 414 239 b 356 -67 418 88 356 -10 b 475 -131 356 -100 424 -131 b 508 -54 514 -131 497 -103 b 629 243 522 1 578 93 z "},"ƒ":{"ha":689,"x_min":0,"x_max":0,"o":"m 528 375 b 629 358 565 374 599 368 l 643 329 b 689 432 676 375 689 417 b 589 472 689 457 650 472 b 565 474 586 472 578 474 b 553 474 561 474 557 474 b 711 803 596 642 647 751 b 719 751 717 785 719 769 b 664 568 719 692 700 633 b 801 754 774 593 801 643 b 739 922 801 851 767 922 b 407 458 649 922 490 775 b 244 313 289 431 269 418 b 379 356 304 336 351 349 b 201 -150 304 22 264 -150 b 188 -142 197 -150 193 -146 l 149 -101 b 263 -317 156 -224 232 -317 b 528 375 332 -317 435 -89 z "},"§":{"ha":872,"x_min":0,"x_max":0,"o":"m 486 268 b 385 386 417 322 385 361 b 596 474 385 433 454 461 b 731 356 685 422 731 376 b 486 268 731 328 646 292 z m 614 157 b 857 356 790 215 857 253 b 664 575 857 410 793 475 b 496 728 557 657 496 699 b 694 771 496 767 557 771 b 815 747 739 771 778 768 l 782 725 b 840 718 804 721 824 718 b 950 817 917 718 950 776 b 682 914 950 874 851 914 b 489 865 589 914 521 894 b 388 714 421 804 388 750 b 475 572 388 669 417 621 b 254 397 328 540 254 486 b 433 140 254 314 322 246 b 568 6 510 67 568 31 b 413 -65 568 -15 479 -65 b 331 -26 392 -65 365 -51 b 228 42 271 14 240 42 b 207 17 221 42 217 32 b 163 -61 182 -24 163 -46 b 288 -175 163 -76 203 -122 b 433 -231 346 -211 392 -231 b 646 -147 483 -231 567 -203 b 722 -11 694 -114 722 -56 b 614 157 722 36 681 83 z "},"¤":{"ha":990,"x_min":0,"x_max":0,"o":"m 368 921 l 308 861 l 439 729 b 388 569 404 683 388 629 b 439 410 388 511 404 457 l 308 278 l 368 219 l 499 351 b 661 299 546 315 600 299 b 822 351 721 299 774 315 l 953 219 l 1013 278 l 881 410 b 932 569 915 457 932 511 b 881 729 932 629 915 683 l 1013 861 l 953 921 l 822 790 b 660 843 774 826 721 843 b 499 790 599 843 546 826 z m 661 757 b 849 569 764 757 849 672 b 661 383 849 467 765 383 b 474 569 557 383 474 467 b 661 757 474 672 558 757 z "},"'":{"ha":324,"x_min":0,"x_max":0,"o":"m 331 925 l 331 567 l 436 567 l 436 925 z "},"“":{"ha":417,"x_min":0,"x_max":0,"o":"m 361 760 b 399 743 375 750 386 743 b 483 860 432 743 483 825 b 450 893 483 881 472 893 b 358 832 418 893 390 874 b 292 703 313 775 292 722 b 303 682 292 690 296 682 b 361 760 321 682 328 713 z m 551 760 b 590 743 565 750 578 743 b 675 860 624 743 675 826 b 642 893 675 881 663 893 b 550 832 608 893 582 872 b 483 703 504 774 483 722 b 494 682 483 690 488 682 b 551 760 513 682 518 713 z "},"«":{"ha":740,"x_min":0,"x_max":0,"o":"m 336 214 l 461 338 b 507 400 488 363 507 382 b 492 417 507 410 500 417 b 429 382 479 417 461 404 l 285 278 b 236 210 253 256 236 235 b 267 149 236 190 244 171 l 354 61 b 393 39 368 47 378 39 b 424 67 414 39 424 50 b 401 114 424 78 417 92 z m 574 214 l 700 338 b 744 400 726 363 744 382 b 731 417 744 410 739 417 b 667 382 718 417 699 404 l 522 278 b 474 210 490 256 474 235 b 506 149 474 190 483 171 l 593 61 b 631 39 607 47 615 39 b 663 67 651 39 663 50 b 640 114 663 78 654 92 z "},"‹":{"ha":479,"x_min":0,"x_max":0,"o":"m 310 214 l 435 338 b 481 400 461 363 481 382 b 465 417 481 410 474 417 b 403 382 453 417 435 404 l 258 278 b 210 210 226 256 210 235 b 240 149 210 190 218 171 l 328 61 b 367 39 342 47 351 39 b 397 67 388 39 397 50 b 375 114 397 78 390 92 z "},"›":{"ha":479,"x_min":0,"x_max":0,"o":"m 332 242 l 206 118 b 161 56 179 92 161 74 b 176 39 161 44 167 39 b 238 72 188 39 207 50 l 383 176 b 431 246 415 199 431 221 b 400 306 431 265 421 285 l 313 394 b 275 417 300 408 290 417 b 243 388 256 417 243 406 b 265 342 243 378 251 363 z "},"ﬁ":{"ha":774,"x_min":0,"x_max":0,"o":"m 176 29 b 253 6 199 19 224 13 b 254 -26 254 -8 254 -18 b 125 -275 254 -129 186 -251 b 108 -189 114 -244 108 -215 b 176 29 108 -119 132 -49 z m 894 257 b 678 113 792 158 715 113 b 614 175 640 113 614 138 b 621 219 614 189 617 203 b 793 449 739 321 793 404 b 750 486 793 474 779 486 b 506 213 672 486 540 358 b 339 94 424 144 367 110 b 263 196 318 133 292 168 b 435 450 349 344 414 421 b 581 771 518 561 581 654 b 554 819 581 804 569 819 b 286 415 510 819 411 686 b 189 261 251 357 221 304 b 160 263 174 263 164 263 b 75 160 104 263 75 224 b 106 86 75 129 83 108 b -6 -229 29 -43 -6 -151 b 64 -396 -6 -329 29 -396 b 253 -257 93 -396 176 -350 b 364 1 326 -169 364 -75 b 363 26 364 11 364 18 b 503 139 407 47 451 86 b 619 -14 510 39 554 -14 b 896 199 697 -14 782 60 z m 764 561 b 808 515 764 535 782 515 b 913 636 857 515 913 590 b 871 679 913 665 897 679 b 764 561 821 679 764 619 z "},"ﬂ":{"ha":769,"x_min":0,"x_max":0,"o":"m 181 29 b 257 6 203 19 228 13 b 258 -26 258 -8 258 -18 b 129 -275 258 -129 190 -251 b 113 -189 118 -244 113 -215 b 181 29 113 -119 136 -49 z m 917 257 b 706 97 807 156 743 97 b 639 219 663 97 639 138 b 639 246 639 232 639 242 b 988 797 872 419 988 625 b 961 843 988 828 978 843 b 703 607 926 843 817 760 b 513 213 597 464 533 321 b 343 94 426 144 369 108 b 267 196 322 133 296 168 b 439 450 353 344 418 421 b 585 771 522 561 585 654 b 558 819 585 804 574 819 b 290 415 514 819 415 686 b 193 261 256 357 225 304 b 164 263 178 263 168 263 b 79 160 108 263 79 224 b 110 86 79 129 88 108 b -1 -229 33 -43 -1 -151 b 68 -396 -1 -329 33 -396 b 257 -257 97 -396 181 -350 b 368 1 331 -169 368 -75 b 367 26 368 11 368 18 b 511 143 418 51 465 90 b 638 -26 529 32 574 -26 b 918 200 710 -26 783 57 z m 665 347 b 906 728 711 476 792 604 b 665 347 858 567 782 440 z "},"–":{"ha":660,"x_min":0,"x_max":0,"o":"m 528 219 b 683 321 597 249 649 279 l 632 338 b 560 328 608 329 585 328 b 211 350 500 328 383 350 b 199 350 207 350 203 350 b 33 306 135 350 89 349 b -22 243 -4 278 -22 254 b 42 222 -22 222 -4 222 z "},"†":{"ha":763,"x_min":0,"x_max":0,"o":"m 613 504 b 785 519 665 507 724 513 b 806 514 792 514 797 514 b 858 538 835 514 858 526 b 771 606 858 550 831 567 b 728 615 757 614 746 615 b 715 615 725 615 721 615 l 668 615 b 781 829 731 746 781 808 b 774 857 781 840 774 851 b 778 885 774 865 778 875 b 756 908 778 899 768 908 b 533 603 726 908 628 806 b 471 597 510 600 488 597 b 331 608 356 597 336 608 b 278 585 317 608 278 590 b 425 503 278 581 346 503 b 431 503 426 503 429 503 l 481 506 b 272 -10 382 275 300 110 b 271 -10 272 -10 272 -10 b 236 -112 256 -10 236 -65 b 324 -226 236 -156 296 -226 b 401 -7 351 -226 356 -150 b 613 504 457 165 528 335 z "},"‡":{"ha":833,"x_min":0,"x_max":0,"o":"m 508 69 b 592 85 538 82 564 85 b 746 74 654 85 706 74 b 800 96 785 74 800 76 b 714 189 800 129 757 189 b 658 188 710 189 693 189 l 551 183 b 696 526 601 325 651 440 b 801 532 736 529 771 532 b 890 528 840 532 871 528 b 940 553 924 528 940 536 b 879 604 940 569 919 575 b 826 629 857 619 849 629 b 824 629 826 629 825 629 l 750 625 l 829 767 b 860 829 842 789 860 806 b 835 910 860 881 851 910 b 615 619 800 910 718 817 b 483 611 565 615 522 611 b 415 618 444 611 422 618 b 364 596 381 618 364 608 b 504 514 364 592 439 514 b 563 518 517 514 536 515 b 413 169 503 378 446 264 b 179 124 260 165 179 139 b 247 44 179 103 210 44 b 293 47 253 44 269 44 l 371 54 l 357 0 b 315 -125 333 -12 315 -65 b 401 -226 315 -169 396 -226 b 508 69 431 -226 439 -126 z "},"·":{"ha":271,"x_min":0,"x_max":0,"o":"m 201 19 b 92 -151 163 -26 128 -85 b 203 -197 165 -154 203 -175 b 99 -256 203 -224 151 -256 b 65 -244 88 -256 76 -251 b 101 -211 88 -226 101 -224 b 89 -206 101 -207 97 -206 b -39 -242 69 -206 26 -218 b -56 -286 -50 -258 -56 -274 b 21 -336 -56 -317 -29 -336 b 168 -294 79 -336 124 -325 b 268 -156 231 -250 268 -186 b 183 -87 268 -118 238 -92 l 268 32 z "},"¶":{"ha":847,"x_min":0,"x_max":0,"o":"m 908 953 l 572 953 b 321 728 417 953 321 860 b 558 506 321 601 410 511 l 558 0 l 640 0 l 640 889 l 750 889 l 750 0 l 833 0 l 833 889 l 908 889 z "},"•":{"ha":603,"x_min":0,"x_max":0,"o":"m 272 490 b 463 300 272 385 357 300 b 654 490 568 300 654 386 b 464 681 654 596 568 681 b 272 490 358 681 272 596 z "},"‚":{"ha":346,"x_min":0,"x_max":0,"o":"m 199 -21 b 163 -89 186 -56 163 -68 b 172 -96 163 -92 165 -96 b 247 -25 186 -96 210 -72 b 303 99 286 26 303 71 b 272 131 303 118 292 131 b 156 3 221 131 156 49 b 181 -25 156 -15 164 -25 b 199 -21 188 -25 193 -22 z "},"„":{"ha":521,"x_min":0,"x_max":0,"o":"m 210 -21 b 174 -89 197 -56 174 -68 b 183 -96 174 -92 176 -96 b 258 -25 197 -96 221 -72 b 314 99 297 26 314 71 b 283 131 314 118 303 131 b 167 3 232 131 167 49 b 192 -25 167 -15 175 -25 b 210 -21 199 -25 204 -22 z m 388 -21 b 350 -89 374 -56 350 -68 b 363 -96 350 -92 354 -96 b 435 -25 375 -96 397 -72 b 493 99 474 26 493 71 b 461 131 493 118 481 131 b 344 3 410 131 344 49 b 369 -25 344 -15 353 -25 b 388 -21 376 -25 381 -22 z "},"”":{"ha":417,"x_min":0,"x_max":0,"o":"m 367 743 b 329 676 353 708 329 697 b 342 669 329 672 333 669 b 415 740 354 669 378 693 b 472 863 454 792 472 835 b 440 896 472 882 460 896 b 324 768 389 896 324 814 b 349 740 324 750 332 740 b 367 743 356 740 360 742 z m 544 743 b 507 676 532 708 507 697 b 519 669 507 672 511 669 b 592 740 533 669 556 693 b 649 863 632 792 649 835 b 617 896 649 882 638 896 b 503 768 565 896 503 814 b 526 740 503 750 508 740 b 544 743 533 740 538 742 z "},"»":{"ha":740,"x_min":0,"x_max":0,"o":"m 349 242 l 222 118 b 178 56 196 92 178 74 b 193 39 178 44 183 39 b 254 72 204 39 224 50 l 400 176 b 447 246 432 199 447 221 b 417 306 447 265 438 285 l 329 394 b 292 417 317 408 307 417 b 260 388 272 417 260 406 b 282 342 260 378 268 363 z m 592 242 l 464 118 b 419 56 438 92 419 74 b 433 39 419 44 425 39 b 497 72 446 39 467 50 l 643 176 b 690 246 674 199 690 221 b 658 306 690 265 679 285 l 571 394 b 533 417 558 408 549 417 b 501 388 513 417 501 406 b 524 342 501 378 510 363 z "},"…":{"ha":1228,"x_min":0,"x_max":0,"o":"m 157 4 b 193 -31 157 -18 168 -31 b 322 100 250 -31 322 61 b 292 133 322 121 310 133 b 157 4 249 133 157 53 z m 596 4 b 632 -31 596 -18 608 -31 b 761 100 690 -31 761 61 b 731 133 761 121 749 133 b 596 4 689 133 596 53 z m 1038 4 b 1072 -31 1038 -18 1049 -31 b 1201 100 1131 -31 1201 61 b 1171 133 1201 121 1190 133 b 1038 4 1129 133 1038 53 z "},"‰":{"ha":1251,"x_min":0,"x_max":0,"o":"m 603 821 b 606 833 604 828 606 832 b 550 882 606 863 583 882 b 401 807 510 882 458 856 b 296 599 332 746 296 674 b 413 464 296 518 349 464 b 589 583 456 464 531 510 b 660 760 638 643 660 707 b 610 821 660 801 643 821 b 603 821 607 821 606 821 z m 511 746 b 572 786 540 775 565 786 b 588 768 581 786 588 778 b 515 649 588 757 565 708 b 411 568 471 596 424 568 b 388 593 399 568 388 579 b 519 788 388 642 428 725 z m 268 -81 b 849 596 463 218 669 422 b 957 753 900 646 957 692 b 936 776 957 767 949 776 b 518 426 908 776 747 661 b 207 19 299 201 207 50 b 268 -81 207 -22 233 -79 z m 814 275 b 749 335 814 311 786 335 b 625 272 719 335 674 315 b 517 67 554 210 517 142 b 622 -76 517 -19 563 -76 b 786 29 668 -76 735 -40 b 856 206 833 93 856 163 b 814 275 856 239 843 261 z m 786 264 b 725 115 783 217 763 169 b 629 26 685 57 653 26 b 604 54 613 26 604 36 b 690 201 604 76 633 138 b 786 264 722 236 754 257 z m 1200 275 b 1136 335 1200 311 1172 335 b 1011 272 1107 335 1061 315 b 903 67 940 210 903 142 b 1008 -76 903 -19 950 -76 b 1172 29 1056 -76 1121 -40 b 1243 206 1219 93 1243 163 b 1200 275 1243 239 1229 261 z m 1171 264 b 1014 26 1151 132 1050 26 b 990 54 997 26 990 36 b 1076 201 990 76 1018 139 b 1171 264 1108 238 1140 257 z "},"¿":{"ha":506,"x_min":0,"x_max":0,"o":"m 347 -247 b 160 -287 294 -272 228 -287 b 53 -232 90 -287 53 -276 b 185 -85 53 -183 108 -150 b 382 165 314 25 382 99 b 321 268 382 229 342 268 b 294 243 304 268 294 257 b 299 211 294 228 299 217 b 178 54 299 186 253 140 b -10 -292 67 -74 -10 -174 b 154 -428 -10 -379 50 -428 b 436 -246 347 -428 436 -343 b 383 -211 436 -222 425 -217 b 299 -196 325 -204 303 -196 b 288 -207 290 -196 288 -200 b 304 -226 288 -219 294 -221 z m 432 486 b 357 347 407 486 357 406 b 419 263 357 311 406 263 b 501 404 438 263 501 353 b 432 486 501 444 460 486 z "},"`":{"ha":340,"x_min":0,"x_max":0,"o":"m 472 582 b 382 728 472 596 426 643 b 326 743 375 742 363 743 b 299 732 307 743 299 740 b 388 606 299 717 326 663 b 460 572 418 578 425 572 b 472 582 468 572 472 572 z "},"´":{"ha":282,"x_min":0,"x_max":0,"o":"m 342 569 b 435 642 372 569 396 597 b 486 724 469 682 486 711 b 457 739 486 733 476 739 b 392 711 406 739 404 738 b 307 582 353 632 307 592 b 342 569 307 575 319 569 z "},"ˆ":{"ha":382,"x_min":0,"x_max":0,"o":"m 565 1083 b 594 994 592 1035 590 1004 b 642 983 599 985 608 983 b 653 1015 646 983 653 996 b 601 1161 653 1114 636 1161 b 524 1132 560 1161 547 1151 l 397 1029 b 374 1003 383 1018 374 1007 b 400 986 374 993 383 986 b 565 1083 453 986 490 1032 z "},"˜":{"ha":382,"x_min":0,"x_max":0,"o":"m 388 971 b 479 1047 435 971 438 1047 b 611 983 517 1047 556 983 b 697 1108 658 983 697 1061 b 675 1135 697 1126 689 1135 b 596 1056 638 1135 638 1056 b 463 1124 563 1056 521 1124 b 361 1001 408 1124 361 1042 b 388 971 361 982 371 971 z "},"¯":{"ha":438,"x_min":0,"x_max":0,"o":"m 601 701 b 558 683 592 689 578 683 b 376 696 497 683 435 696 b 297 644 315 696 297 689 b 365 618 297 619 313 618 b 374 618 367 618 369 618 l 476 618 b 601 701 557 618 597 638 z "},"˘":{"ha":410,"x_min":0,"x_max":0,"o":"m 433 578 b 610 713 522 578 610 683 b 589 733 610 726 603 733 b 526 697 542 733 547 722 b 426 638 493 657 461 638 b 367 683 397 638 378 654 b 338 732 357 711 365 732 b 310 693 324 732 310 718 b 433 578 310 631 363 578 z "},"˙":{"ha":381,"x_min":0,"x_max":0,"o":"m 354 632 b 399 588 354 604 374 588 b 486 672 443 588 486 635 b 446 714 486 699 472 714 b 354 632 397 714 354 667 z "},"¨":{"ha":438,"x_min":0,"x_max":0,"o":"m 289 614 b 329 569 289 585 304 569 b 414 651 372 569 414 614 b 376 689 414 676 400 689 b 289 614 329 689 289 644 z m 467 614 b 508 569 467 585 483 569 b 593 651 550 569 593 614 b 554 689 593 676 578 689 b 467 614 507 689 467 644 z "},"˚":{"ha":424,"x_min":0,"x_max":0,"o":"m 549 772 b 554 794 551 781 554 788 b 511 824 554 814 540 824 b 333 679 425 824 333 760 b 435 565 333 611 378 565 b 575 694 503 565 575 618 b 549 772 575 725 568 749 z m 514 744 b 514 726 514 739 514 732 b 411 618 514 665 451 618 b 386 661 397 618 386 636 b 486 747 386 704 443 747 b 514 744 493 747 503 746 z "},"—":{"ha":1607,"x_min":0,"x_max":0,"o":"m 260 229 l 1579 229 l 1579 342 l 260 342 z "},"Æ":{"ha":1269,"x_min":0,"x_max":0,"o":"m 565 432 b 839 775 722 660 813 775 b 844 763 843 775 844 772 b 785 567 844 738 785 661 b 879 449 785 507 811 478 b 565 432 811 443 707 436 z m 479 289 b 763 313 607 294 703 303 b 592 110 650 238 592 174 b 839 -100 592 -42 669 -100 b 1190 33 974 -100 1108 -44 b 1226 136 1215 57 1226 88 b 1215 222 1226 157 1226 185 b 867 72 1094 122 988 72 b 719 121 774 72 719 94 b 1085 367 719 192 863 319 b 1172 397 1125 375 1151 371 b 1204 467 1193 422 1204 460 b 1158 489 1204 479 1188 489 b 1089 486 1140 489 1118 486 b 882 561 951 486 882 511 b 1181 719 882 613 1014 719 b 1217 718 1183 719 1196 718 b 1153 635 1172 675 1153 646 b 1160 619 1153 626 1156 619 b 1310 706 1160 619 1214 649 b 1364 796 1353 732 1364 735 b 1229 901 1364 874 1340 901 b 954 821 1126 901 1049 874 b 901 938 950 900 936 938 b 471 429 860 938 694 774 l 356 432 l 424 453 b 450 468 442 458 450 463 b 429 479 450 472 443 479 b 182 326 297 479 182 374 b 244 290 182 301 201 290 l 381 289 l 300 158 b 294 158 299 158 296 158 b 217 106 275 158 251 140 b 132 -54 164 53 132 -19 b 165 -94 132 -79 147 -94 b 479 289 246 -94 328 39 z "},"ª":{"ha":585,"x_min":0,"x_max":0,"o":"m 642 821 b 406 617 525 681 429 617 b 388 642 396 617 388 626 b 642 821 388 714 476 754 z m 563 661 b 539 569 547 619 539 592 b 592 514 539 536 563 514 b 801 675 640 514 701 572 l 800 715 b 658 625 733 657 690 625 b 629 646 642 625 629 632 b 706 788 629 699 706 761 b 701 806 706 793 704 799 l 683 838 l 701 849 b 719 865 714 856 719 858 b 672 911 719 882 696 911 b 568 886 664 911 625 907 b 408 803 507 865 456 839 b 311 665 344 754 311 701 b 390 533 311 607 368 533 b 563 661 419 533 475 575 z "},"Ø":{"ha":760,"x_min":0,"x_max":0,"o":"m 664 614 b 728 628 689 624 711 628 b 776 571 761 628 776 610 b 622 260 776 515 729 392 b 478 121 574 201 525 154 b 639 542 551 315 639 542 b 664 614 639 543 650 572 z m 360 57 b 301 46 338 50 318 46 b 242 115 265 46 242 69 b 378 425 242 182 289 329 l 379 374 b 563 564 431 460 499 522 z m 321 -40 l 251 -212 b 290 -276 251 -254 268 -276 b 385 -194 329 -276 385 -215 b 379 -157 385 -186 379 -172 b 422 -31 379 -150 396 -100 b 726 178 536 -6 640 64 b 878 574 828 314 878 468 b 764 694 878 657 842 694 b 728 692 760 694 749 693 b 857 747 811 733 857 725 b 811 826 857 761 843 789 b 750 869 788 853 775 867 b 790 988 774 938 790 988 b 765 1033 790 1017 779 1033 b 740 1006 756 1033 747 1022 l 682 860 b 354 667 604 836 474 774 b 122 240 201 528 122 376 b 321 -40 122 89 211 -35 z "},"Œ":{"ha":1194,"x_min":0,"x_max":0,"o":"m 885 406 b 664 203 775 349 707 294 b 521 57 633 140 589 100 b 331 -21 433 0 358 -21 b 247 121 278 -21 247 28 b 454 526 247 258 317 390 b 706 676 558 629 658 676 b 753 625 739 676 753 661 b 750 554 753 614 750 590 b 885 406 750 454 781 431 z m 654 13 b 842 -103 689 -81 731 -103 b 1157 0 976 -103 1104 -47 b 1219 171 1194 33 1219 97 b 1214 221 1219 185 1218 201 b 822 58 1088 114 942 58 b 743 114 768 58 743 72 b 865 276 743 150 786 225 b 1110 364 942 326 1026 342 b 1193 460 1168 381 1193 415 b 1126 485 1193 476 1171 485 b 1093 485 1118 485 1106 485 b 860 549 933 485 860 501 b 1215 722 860 603 1003 717 b 1143 631 1167 675 1143 644 b 1150 619 1143 622 1144 619 b 1297 704 1164 619 1203 653 b 1351 778 1333 724 1351 726 b 1231 901 1351 867 1347 901 b 854 754 1086 901 968 853 b 735 875 815 832 771 875 b 436 742 665 875 558 833 b 119 200 225 583 119 399 b 371 -104 119 13 222 -104 b 654 13 451 -104 547 -65 z "},"º":{"ha":504,"x_min":0,"x_max":0,"o":"m 503 626 b 431 593 478 603 453 593 b 393 628 406 593 393 604 b 551 789 393 672 447 750 b 501 656 518 732 501 688 b 503 626 501 646 501 638 z m 554 585 b 574 585 561 585 569 585 b 719 672 614 585 660 617 l 721 719 b 586 633 660 664 619 635 b 640 778 622 686 640 736 b 610 822 640 808 633 822 l 608 822 b 626 843 618 833 626 839 b 557 876 626 857 597 876 b 408 810 517 876 457 853 b 319 647 350 760 319 697 b 425 519 319 568 369 519 b 554 585 468 519 510 542 z "},"æ":{"ha":772,"x_min":0,"x_max":0,"o":"m 544 251 b 760 435 613 382 722 435 b 769 421 765 435 769 431 b 544 251 769 388 693 318 z m 556 408 b 221 117 368 218 263 117 b 199 151 208 117 199 131 b 556 408 199 247 318 333 z m 901 199 l 901 257 b 625 92 785 144 686 92 b 539 189 575 92 539 128 b 539 196 539 192 539 193 b 869 449 750 246 869 374 b 776 510 869 489 839 510 b 615 456 725 510 672 492 l 615 508 b 572 540 615 524 599 540 b 438 501 551 540 506 529 b 225 382 361 471 290 436 b 96 192 139 313 96 236 b 204 -3 96 106 168 -3 b 418 169 236 -3 308 54 b 415 125 417 153 415 139 b 571 -19 415 36 475 -19 b 901 199 667 -19 771 54 z "},"ı":{"ha":331,"x_min":0,"x_max":0,"o":"m 468 257 b 251 113 367 158 290 113 b 188 175 214 113 188 138 b 194 219 188 189 190 203 b 368 449 314 321 368 404 b 324 486 368 474 353 486 b 207 422 281 486 247 463 b 78 160 117 333 78 258 b 193 -14 78 47 122 -14 b 469 199 271 -14 356 60 z "},"ø":{"ha":458,"x_min":0,"x_max":0,"o":"m 629 260 b 454 142 543 178 490 143 b 526 361 503 211 526 289 b 506 400 526 388 517 400 b 501 400 504 400 503 400 l 478 396 l 499 415 b 508 433 506 421 508 431 b 436 472 508 444 482 465 b 506 536 468 521 499 532 b 531 626 508 539 531 593 b 510 646 531 636 522 646 b 356 467 479 646 418 588 b 63 172 182 435 63 303 b 150 8 63 100 93 43 l 114 -90 b 106 -136 107 -110 106 -129 b 136 -172 106 -157 125 -172 b 179 -126 158 -172 168 -160 l 218 -15 b 222 -15 219 -15 221 -15 b 413 83 290 -15 365 21 b 435 82 424 82 429 82 b 628 197 492 82 550 122 z m 235 74 b 363 364 276 178 319 275 l 425 376 b 347 156 375 296 347 226 b 349 136 347 154 347 147 b 235 74 332 110 294 90 z m 181 86 b 154 165 163 103 154 129 b 294 340 154 219 200 286 b 181 86 249 250 213 168 z "},"œ":{"ha":719,"x_min":0,"x_max":0,"o":"m 483 251 b 697 435 551 382 663 435 b 707 419 704 435 707 429 b 483 251 707 392 631 318 z m 353 158 b 208 68 293 97 247 68 b 153 122 176 68 153 89 b 244 293 153 171 182 231 b 394 392 311 360 383 392 b 417 371 408 392 417 382 b 353 165 417 344 353 279 b 353 158 353 163 353 161 z m 476 196 b 808 449 688 246 808 374 b 715 507 808 488 779 507 b 510 429 646 507 581 479 b 400 506 496 471 450 506 b 183 407 329 506 253 471 b 61 157 103 331 61 239 b 211 -29 61 49 129 -29 b 369 58 263 -29 324 0 b 507 -19 388 13 446 -19 b 840 199 604 -19 710 54 l 840 257 b 563 92 725 144 624 92 b 476 189 513 92 476 128 b 476 196 476 192 476 193 z "},"ß":{"ha":746,"x_min":0,"x_max":0,"o":"m 303 346 l 167 94 b 6 -210 131 26 6 -37 b 28 -251 6 -236 17 -251 b 175 -60 68 -251 114 -183 b 643 778 264 121 400 408 b 663 683 657 751 663 722 b 579 515 663 606 632 561 b 542 458 556 493 542 476 b 606 301 542 418 606 369 b 504 129 606 254 572 196 b 442 133 485 132 464 133 b 307 22 364 133 307 88 b 393 -50 307 -19 347 -50 b 464 -28 410 -50 433 -42 b 542 -46 492 -39 517 -46 b 872 169 625 -46 760 25 l 872 229 b 653 85 772 138 713 85 b 606 90 640 85 626 86 b 729 279 686 153 729 219 b 617 460 729 338 690 400 b 790 758 758 556 790 625 b 701 890 790 847 764 890 b 457 642 614 890 563 796 b 85 193 343 475 222 325 l 107 156 b 303 346 163 196 226 260 z "},"¬":{"ha":1068,"x_min":0,"x_max":0,"o":"m 286 556 l 286 449 l 951 449 l 951 232 l 1058 232 l 1058 556 z "},"µ":{"ha":858,"x_min":0,"x_max":0,"o":"m 310 697 l 118 -276 l 267 -276 l 329 49 b 481 -21 367 -1 414 -21 b 644 69 549 -21 610 13 b 644 61 644 67 644 64 b 742 -19 644 7 678 -19 b 838 -10 775 -19 807 -17 l 858 93 b 836 92 850 92 843 92 b 793 135 804 92 793 104 b 804 221 793 151 796 179 l 899 697 l 753 697 l 683 339 b 486 93 651 171 596 93 b 369 221 410 93 369 138 b 376 288 369 240 371 263 l 457 697 z "},"™":{"ha":925,"x_min":0,"x_max":0,"o":"m 290 940 l 290 881 l 400 881 l 400 592 l 483 592 l 483 881 l 592 881 l 592 940 z m 667 940 l 667 592 l 740 592 l 740 867 l 847 592 l 886 592 l 989 867 l 989 592 l 1063 592 l 1063 940 l 953 940 l 868 708 l 776 940 z "},"±":{"ha":1097,"x_min":0,"x_max":0,"o":"m 646 778 l 646 563 l 315 563 l 315 456 l 646 456 l 646 240 l 756 240 l 756 456 l 1088 456 l 1088 563 l 756 563 l 756 778 z m 315 118 l 315 10 l 1088 10 l 1088 118 z "},"÷":{"ha":1075,"x_min":0,"x_max":0,"o":"m 679 726 b 590 638 632 726 590 686 b 679 550 590 589 629 550 b 768 638 729 550 768 590 b 679 726 768 686 728 726 z m 293 447 l 293 340 l 1065 340 l 1065 447 z m 679 236 b 590 147 632 236 590 197 b 679 61 590 99 629 61 b 768 147 729 61 768 100 b 679 236 768 197 728 236 z "},"°":{"ha":504,"x_min":0,"x_max":0,"o":"m 510 940 b 319 750 404 940 319 857 b 508 560 319 643 403 560 b 700 750 615 560 700 646 b 510 940 700 856 614 940 z m 510 869 b 628 751 575 869 628 817 b 510 631 628 686 576 631 b 389 751 443 631 389 685 b 510 869 389 817 443 869 z "},"®":{"ha":658,"x_min":0,"x_max":0,"o":"m 551 900 b 385 832 486 900 429 878 b 313 663 339 786 313 725 b 382 496 313 600 338 540 b 551 422 428 449 488 422 b 719 493 613 422 674 447 b 790 663 765 538 790 596 b 722 829 790 726 767 785 b 551 900 676 876 617 900 z m 551 865 b 697 804 608 865 657 844 b 756 658 735 765 756 717 b 696 518 756 606 733 556 b 549 460 656 479 604 460 b 407 519 497 460 446 481 b 349 663 369 558 349 608 b 410 807 349 715 371 767 b 551 865 449 846 496 865 z m 454 800 l 454 533 l 511 533 l 511 644 l 553 644 l 606 533 l 669 533 l 611 654 b 669 728 649 663 669 689 b 557 800 669 775 632 800 z m 511 764 l 547 764 b 611 721 590 764 611 751 b 549 681 611 692 592 681 l 511 681 z "},"©":{"ha":658,"x_min":0,"x_max":0,"o":"m 550 900 b 383 831 485 900 428 876 b 311 663 338 785 311 725 b 382 494 311 599 336 539 b 550 422 428 449 488 422 b 719 494 613 422 674 449 b 789 663 765 539 789 597 b 719 831 789 726 764 786 b 550 900 674 876 614 900 z m 550 865 b 694 806 606 865 656 844 b 754 663 733 768 754 717 b 694 519 754 606 733 557 b 550 460 654 481 604 460 b 407 519 497 460 446 481 b 347 663 368 558 347 608 b 407 807 347 715 368 767 b 550 865 446 846 494 865 z m 664 718 b 551 807 660 771 615 807 b 422 660 475 807 422 750 b 550 518 422 572 472 518 b 667 614 617 518 664 557 l 613 614 b 553 560 608 579 586 560 b 481 663 507 560 481 596 b 549 767 481 731 508 767 b 611 718 583 767 606 750 z "},"Á":{"ha":972,"x_min":0,"x_max":0,"o":"m 850 446 b 647 432 793 438 725 435 b 951 754 715 515 813 625 z m 521 269 b 565 269 535 269 551 269 b 801 281 647 269 726 272 l 744 108 b 736 44 738 89 736 65 b 807 -29 736 -6 760 -29 b 1099 188 892 -29 972 50 l 1097 232 b 901 100 993 144 929 100 b 883 133 892 100 883 114 b 919 279 883 160 896 207 b 1018 303 968 285 997 285 b 1111 425 1072 350 1111 406 b 1050 454 1111 439 1083 454 b 1040 454 1046 454 1043 454 l 972 450 l 1060 733 b 1085 850 1076 786 1085 826 b 1043 906 1085 883 1063 906 b 550 429 1006 906 832 751 l 454 429 b 551 465 489 442 524 438 b 383 436 481 464 426 458 b 282 318 336 411 282 346 b 422 271 282 278 325 276 l 333 160 b 122 -65 226 128 122 -15 b 150 -90 122 -78 133 -90 b 472 208 218 -90 319 15 z m 1101 983 b 1194 1056 1132 983 1156 1011 b 1246 1138 1229 1096 1246 1125 b 1217 1153 1246 1147 1236 1153 b 1151 1125 1165 1153 1164 1151 b 1067 996 1113 1046 1067 1006 b 1101 983 1067 989 1079 983 z "},"Â":{"ha":972,"x_min":0,"x_max":0,"o":"m 850 446 b 647 432 793 438 725 435 b 951 754 715 515 813 625 z m 521 269 b 565 269 535 269 551 269 b 801 281 647 269 726 272 l 744 108 b 736 44 738 89 736 65 b 807 -29 736 -6 760 -29 b 1099 188 892 -29 972 50 l 1097 232 b 901 100 993 144 929 100 b 883 133 892 100 883 114 b 919 279 883 160 896 207 b 1018 303 968 285 997 285 b 1111 425 1072 350 1111 406 b 1050 454 1111 439 1083 454 b 1040 454 1046 454 1043 454 l 972 450 l 1060 733 b 1085 850 1076 786 1085 826 b 1043 906 1085 883 1063 906 b 550 429 1006 906 832 751 l 454 429 b 551 465 489 442 524 438 b 383 436 481 464 426 458 b 282 318 336 411 282 346 b 422 271 282 278 325 276 l 333 160 b 122 -65 226 128 122 -15 b 150 -90 122 -78 133 -90 b 472 208 218 -90 319 15 z m 1121 1083 b 1150 994 1147 1035 1146 1004 b 1197 983 1154 985 1164 983 b 1208 1015 1201 983 1208 996 b 1157 1161 1208 1114 1192 1161 b 1079 1132 1115 1161 1103 1151 l 953 1029 b 929 1003 939 1018 929 1007 b 956 986 929 993 939 986 b 1121 1083 1008 986 1046 1032 z "},"Ä":{"ha":972,"x_min":0,"x_max":0,"o":"m 850 446 b 647 432 793 438 725 435 b 951 754 715 515 813 625 z m 521 269 b 565 269 535 269 551 269 b 801 281 647 269 726 272 l 744 108 b 736 44 738 89 736 65 b 807 -29 736 -6 760 -29 b 1099 188 892 -29 972 50 l 1097 232 b 901 100 993 144 929 100 b 883 133 892 100 883 114 b 919 279 883 160 896 207 b 1018 303 968 285 997 285 b 1111 425 1072 350 1111 406 b 1050 454 1111 439 1083 454 b 1040 454 1046 454 1043 454 l 972 450 l 1060 733 b 1085 850 1076 786 1085 826 b 1043 906 1085 883 1063 906 b 550 429 1006 906 832 751 l 454 429 b 551 465 489 442 524 438 b 383 436 481 464 426 458 b 282 318 336 411 282 346 b 422 271 282 278 325 276 l 333 160 b 122 -65 226 128 122 -15 b 150 -90 122 -78 133 -90 b 472 208 218 -90 319 15 z m 928 1028 b 968 983 928 999 943 983 b 1053 1065 1011 983 1053 1028 b 1015 1103 1053 1090 1039 1103 b 928 1028 968 1103 928 1058 z m 1106 1028 b 1147 983 1106 999 1122 983 b 1232 1065 1189 983 1232 1028 b 1193 1103 1232 1090 1217 1103 b 1106 1028 1146 1103 1106 1058 z "},"À":{"ha":972,"x_min":0,"x_max":0,"o":"m 850 446 b 647 432 793 438 725 435 b 951 754 715 515 813 625 z m 521 269 b 565 269 535 269 551 269 b 801 281 647 269 726 272 l 744 108 b 736 44 738 89 736 65 b 807 -29 736 -6 760 -29 b 1099 188 892 -29 972 50 l 1097 232 b 901 100 993 144 929 100 b 883 133 892 100 883 114 b 919 279 883 160 896 207 b 1018 303 968 285 997 285 b 1111 425 1072 350 1111 406 b 1050 454 1111 439 1083 454 b 1040 454 1046 454 1043 454 l 972 450 l 1060 733 b 1085 850 1076 786 1085 826 b 1043 906 1085 883 1063 906 b 550 429 1006 906 832 751 l 454 429 b 551 465 489 442 524 438 b 383 436 481 464 426 458 b 282 318 336 411 282 346 b 422 271 282 278 325 276 l 333 160 b 122 -65 226 128 122 -15 b 150 -90 122 -78 133 -90 b 472 208 218 -90 319 15 z m 1083 993 b 993 1139 1083 1007 1038 1054 b 938 1154 986 1153 974 1154 b 910 1143 918 1154 910 1151 b 999 1017 910 1128 938 1074 b 1071 983 1029 989 1036 983 b 1083 993 1079 983 1083 983 z "},"Å":{"ha":972,"x_min":0,"x_max":0,"o":"m 850 446 b 647 432 793 438 725 435 b 951 754 715 515 813 625 z m 521 269 b 565 269 535 269 551 269 b 801 281 647 269 726 272 l 744 108 b 736 44 738 89 736 65 b 807 -29 736 -6 760 -29 b 1099 188 892 -29 972 50 l 1097 232 b 901 100 993 144 929 100 b 883 133 892 100 883 114 b 919 279 883 160 896 207 b 1018 303 968 285 997 285 b 1111 425 1072 350 1111 406 b 1050 454 1111 439 1083 454 b 1040 454 1046 454 1043 454 l 972 450 l 1060 733 b 1085 850 1076 786 1085 826 b 1043 906 1085 883 1063 906 b 550 429 1006 906 832 751 l 454 429 b 551 465 489 442 524 438 b 383 436 481 464 426 458 b 282 318 336 411 282 346 b 422 271 282 278 325 276 l 333 160 b 122 -65 226 128 122 -15 b 150 -90 122 -78 133 -90 b 472 208 218 -90 319 15 z m 1188 1190 b 1193 1213 1190 1199 1193 1206 b 1150 1242 1193 1232 1179 1242 b 972 1097 1064 1242 972 1178 b 1074 983 972 1029 1017 983 b 1214 1113 1142 983 1214 1036 b 1188 1190 1214 1143 1207 1167 z m 1153 1163 b 1153 1144 1153 1157 1153 1150 b 1050 1036 1153 1083 1090 1036 b 1025 1079 1036 1036 1025 1054 b 1125 1165 1025 1122 1082 1165 b 1153 1163 1132 1165 1142 1164 z "},"Ã":{"ha":972,"x_min":0,"x_max":0,"o":"m 850 446 b 647 432 793 438 725 435 b 951 754 715 515 813 625 z m 521 269 b 565 269 535 269 551 269 b 801 281 647 269 726 272 l 744 108 b 736 44 738 89 736 65 b 807 -29 736 -6 760 -29 b 1099 188 892 -29 972 50 l 1097 232 b 901 100 993 144 929 100 b 883 133 892 100 883 114 b 919 279 883 160 896 207 b 1018 303 968 285 997 285 b 1111 425 1072 350 1111 406 b 1050 454 1111 439 1083 454 b 1040 454 1046 454 1043 454 l 972 450 l 1060 733 b 1085 850 1076 786 1085 826 b 1043 906 1085 883 1063 906 b 550 429 1006 906 832 751 l 454 429 b 551 465 489 442 524 438 b 383 436 481 464 426 458 b 282 318 336 411 282 346 b 422 271 282 278 325 276 l 333 160 b 122 -65 226 128 122 -15 b 150 -90 122 -78 133 -90 b 472 208 218 -90 319 15 z m 924 971 b 1015 1047 971 971 974 1047 b 1147 983 1053 1047 1092 983 b 1233 1108 1194 983 1233 1061 b 1211 1135 1233 1126 1225 1135 b 1132 1056 1174 1135 1174 1056 b 999 1124 1099 1056 1057 1124 b 897 1001 944 1124 897 1042 b 924 971 897 982 907 971 z "},"Ç":{"ha":774,"x_min":0,"x_max":0,"o":"m 350 -44 b 279 -164 326 -79 303 -119 b 390 -210 353 -167 390 -187 b 286 -268 390 -236 339 -268 b 253 -257 275 -268 264 -264 b 289 -224 275 -239 289 -236 b 276 -218 289 -219 285 -218 b 149 -254 257 -218 214 -231 b 132 -299 138 -271 132 -286 b 208 -349 132 -329 158 -349 b 356 -307 267 -349 311 -337 b 456 -168 418 -262 456 -199 b 371 -100 456 -131 425 -104 l 410 -44 b 981 293 567 -33 767 78 l 972 347 b 454 86 758 171 582 86 b 321 213 367 86 321 135 b 596 654 321 328 411 494 b 932 860 765 801 897 860 b 958 833 950 860 958 853 b 758 599 958 800 896 704 l 754 626 b 526 421 599 538 526 456 b 600 333 526 382 568 333 b 886 519 629 333 746 388 b 1079 842 1015 642 1079 750 b 964 950 1079 908 1038 950 b 489 729 854 950 690 879 b 122 197 242 544 122 349 b 350 -44 122 63 213 -32 z "},"É":{"ha":858,"x_min":0,"x_max":0,"o":"m 913 222 b 399 26 729 97 582 26 b 264 79 310 26 264 44 b 394 217 264 104 308 163 b 700 324 472 265 572 299 b 828 356 765 336 801 332 b 886 451 865 389 886 435 b 651 493 886 490 811 486 b 403 549 482 501 403 510 b 482 625 403 572 429 594 b 815 713 578 681 700 713 b 872 711 828 713 849 713 b 772 614 804 669 772 631 b 782 607 772 610 775 607 b 983 703 783 607 851 638 b 1043 794 1026 724 1043 736 b 1043 811 1043 801 1043 806 b 1026 879 1043 847 1042 865 b 839 911 1008 894 939 911 b 422 801 675 911 528 871 b 265 576 317 731 265 657 b 626 401 265 457 382 404 b 122 35 297 339 122 185 b 386 -160 122 -86 215 -160 b 818 -21 542 -160 714 -101 b 917 174 883 31 917 88 b 913 222 917 186 915 201 z m 847 983 b 940 1056 878 983 901 1011 b 992 1138 975 1096 992 1125 b 963 1153 992 1147 982 1153 b 897 1125 911 1153 910 1151 b 813 996 858 1046 813 1006 b 847 983 813 989 825 983 z "},"Ê":{"ha":858,"x_min":0,"x_max":0,"o":"m 913 222 b 399 26 729 97 582 26 b 264 79 310 26 264 44 b 394 217 264 104 308 163 b 700 324 472 265 572 299 b 828 356 765 336 801 332 b 886 451 865 389 886 435 b 651 493 886 490 811 486 b 403 549 482 501 403 510 b 482 625 403 572 429 594 b 815 713 578 681 700 713 b 872 711 828 713 849 713 b 772 614 804 669 772 631 b 782 607 772 610 775 607 b 983 703 783 607 851 638 b 1043 794 1026 724 1043 736 b 1043 811 1043 801 1043 806 b 1026 879 1043 847 1042 865 b 839 911 1008 894 939 911 b 422 801 675 911 528 871 b 265 576 317 731 265 657 b 626 401 265 457 382 404 b 122 35 297 339 122 185 b 386 -160 122 -86 215 -160 b 818 -21 542 -160 714 -101 b 917 174 883 31 917 88 b 913 222 917 186 915 201 z m 885 1083 b 914 994 911 1035 910 1004 b 961 983 918 985 928 983 b 972 1015 965 983 972 996 b 921 1161 972 1114 956 1161 b 843 1132 879 1161 867 1151 l 717 1029 b 693 1003 703 1018 693 1007 b 719 986 693 993 703 986 b 885 1083 772 986 810 1032 z "},"Ë":{"ha":858,"x_min":0,"x_max":0,"o":"m 913 222 b 399 26 729 97 582 26 b 264 79 310 26 264 44 b 394 217 264 104 308 163 b 700 324 472 265 572 299 b 828 356 765 336 801 332 b 886 451 865 389 886 435 b 651 493 886 490 811 486 b 403 549 482 501 403 510 b 482 625 403 572 429 594 b 815 713 578 681 700 713 b 872 711 828 713 849 713 b 772 614 804 669 772 631 b 782 607 772 610 775 607 b 983 703 783 607 851 638 b 1043 794 1026 724 1043 736 b 1043 811 1043 801 1043 806 b 1026 879 1043 847 1042 865 b 839 911 1008 894 939 911 b 422 801 675 911 528 871 b 265 576 317 731 265 657 b 626 401 265 457 382 404 b 122 35 297 339 122 185 b 386 -160 122 -86 215 -160 b 818 -21 542 -160 714 -101 b 917 174 883 31 917 88 b 913 222 917 186 915 201 z m 700 1029 b 740 985 700 1000 715 985 b 825 1067 783 985 825 1029 b 788 1104 825 1092 811 1104 b 700 1029 740 1104 700 1060 z m 878 1029 b 919 985 878 1000 894 985 b 1004 1067 961 985 1004 1029 b 965 1104 1004 1092 989 1104 b 878 1029 918 1104 878 1060 z "},"È":{"ha":858,"x_min":0,"x_max":0,"o":"m 913 222 b 399 26 729 97 582 26 b 264 79 310 26 264 44 b 394 217 264 104 308 163 b 700 324 472 265 572 299 b 828 356 765 336 801 332 b 886 451 865 389 886 435 b 651 493 886 490 811 486 b 403 549 482 501 403 510 b 482 625 403 572 429 594 b 815 713 578 681 700 713 b 872 711 828 713 849 713 b 772 614 804 669 772 631 b 782 607 772 610 775 607 b 983 703 783 607 851 638 b 1043 794 1026 724 1043 736 b 1043 811 1043 801 1043 806 b 1026 879 1043 847 1042 865 b 839 911 1008 894 939 911 b 422 801 675 911 528 871 b 265 576 317 731 265 657 b 626 401 265 457 382 404 b 122 35 297 339 122 185 b 386 -160 122 -86 215 -160 b 818 -21 542 -160 714 -101 b 917 174 883 31 917 88 b 913 222 917 186 915 201 z m 861 993 b 771 1139 861 1007 815 1054 b 715 1154 764 1153 751 1154 b 688 1143 696 1154 688 1151 b 776 1017 688 1128 715 1074 b 849 983 807 989 814 983 b 861 993 857 983 861 983 z "},"Í":{"ha":546,"x_min":0,"x_max":0,"o":"m 418 92 b 746 775 640 394 746 625 b 621 900 746 856 697 900 b 236 699 542 900 361 831 b 122 493 161 621 122 521 b 231 382 122 456 196 382 b 303 429 247 382 264 401 b 368 488 343 458 368 471 b 344 504 368 499 360 504 b 285 488 332 504 314 499 b 642 751 350 614 481 713 b 482 378 632 639 568 524 b 260 15 357 168 260 56 b 326 -50 260 -6 303 -50 b 421 67 357 -50 421 32 b 418 92 421 75 421 83 z m 671 983 b 764 1056 701 983 725 1011 b 815 1138 799 1096 815 1125 b 786 1153 815 1147 806 1153 b 721 1125 735 1153 733 1151 b 636 996 682 1046 636 1006 b 671 983 636 989 649 983 z "},"Î":{"ha":546,"x_min":0,"x_max":0,"o":"m 418 92 b 746 775 640 394 746 625 b 621 900 746 856 697 900 b 236 699 542 900 361 831 b 122 493 161 621 122 521 b 231 382 122 456 196 382 b 303 429 247 382 264 401 b 368 488 343 458 368 471 b 344 504 368 499 360 504 b 285 488 332 504 314 499 b 642 751 350 614 481 713 b 482 378 632 639 568 524 b 260 15 357 168 260 56 b 326 -50 260 -6 303 -50 b 421 67 357 -50 421 32 b 418 92 421 75 421 83 z m 718 1083 b 747 994 744 1035 743 1004 b 794 983 751 985 761 983 b 806 1015 799 983 806 996 b 754 1161 806 1114 789 1161 b 676 1132 713 1161 700 1151 l 550 1029 b 526 1003 536 1018 526 1007 b 553 986 526 993 536 986 b 718 1083 606 986 643 1032 z "},"Ï":{"ha":546,"x_min":0,"x_max":0,"o":"m 418 92 b 746 775 640 394 746 625 b 621 900 746 856 697 900 b 236 699 542 900 361 831 b 122 493 161 621 122 521 b 231 382 122 456 196 382 b 303 429 247 382 264 401 b 368 488 343 458 368 471 b 344 504 368 499 360 504 b 285 488 332 504 314 499 b 642 751 350 614 481 713 b 482 378 632 639 568 524 b 260 15 357 168 260 56 b 326 -50 260 -6 303 -50 b 421 67 357 -50 421 32 b 418 92 421 75 421 83 z m 478 1029 b 518 985 478 1000 493 985 b 603 1067 561 985 603 1029 b 565 1104 603 1092 589 1104 b 478 1029 518 1104 478 1060 z m 656 1029 b 697 985 656 1000 672 985 b 782 1067 739 985 782 1029 b 743 1104 782 1092 767 1104 b 656 1029 696 1104 656 1060 z "},"Ì":{"ha":546,"x_min":0,"x_max":0,"o":"m 418 92 b 746 775 640 394 746 625 b 621 900 746 856 697 900 b 236 699 542 900 361 831 b 122 493 161 621 122 521 b 231 382 122 456 196 382 b 303 429 247 382 264 401 b 368 488 343 458 368 471 b 344 504 368 499 360 504 b 285 488 332 504 314 499 b 642 751 350 614 481 713 b 482 378 632 639 568 524 b 260 15 357 168 260 56 b 326 -50 260 -6 303 -50 b 421 67 357 -50 421 32 b 418 92 421 75 421 83 z m 667 993 b 576 1139 667 1007 621 1054 b 521 1154 569 1153 557 1154 b 493 1143 501 1154 493 1151 b 582 1017 493 1128 521 1074 b 654 983 613 989 619 983 b 667 993 663 983 667 983 z "},"Ñ":{"ha":913,"x_min":0,"x_max":0,"o":"m 1057 238 b 811 63 933 121 853 63 b 772 107 785 63 772 76 b 928 392 772 163 825 256 b 1125 744 1039 540 1125 639 b 1063 850 1125 799 1092 850 b 458 318 1011 850 785 696 b 749 849 647 593 749 768 b 651 928 749 896 707 928 b 324 808 590 928 481 889 l 379 857 b 396 876 389 864 396 868 b 389 882 396 881 393 882 b 231 769 376 882 322 844 b 122 588 157 708 122 638 b 136 557 122 567 126 557 b 335 651 154 557 218 594 b 560 735 461 713 539 735 b 589 714 581 735 589 729 b 449 456 589 685 539 601 b 226 90 308 231 226 114 b 307 7 226 61 288 7 b 564 293 329 7 407 110 b 960 656 706 460 840 579 b 793 411 933 594 868 522 b 599 -17 665 224 599 85 b 678 -114 599 -74 631 -114 b 1058 178 740 -114 901 -21 z m 956 971 b 1047 1047 1003 971 1006 1047 b 1179 983 1085 1047 1124 983 b 1265 1108 1226 983 1265 1061 b 1243 1135 1265 1126 1257 1135 b 1164 1056 1206 1135 1206 1056 b 1031 1124 1131 1056 1089 1124 b 929 1001 976 1124 929 1042 b 956 971 929 982 939 971 z "},"Ó":{"ha":760,"x_min":0,"x_max":0,"o":"m 728 692 b 857 747 811 733 857 725 b 811 826 857 761 843 789 b 736 871 783 857 771 871 b 354 667 683 871 510 806 b 122 240 201 528 122 376 b 328 -40 122 86 215 -40 b 726 178 479 -40 618 33 b 878 574 828 314 878 468 b 764 694 878 657 842 694 b 728 692 760 694 749 693 z m 379 374 b 728 628 483 549 658 628 b 776 571 761 628 776 610 b 622 260 776 515 729 392 b 301 46 504 114 374 46 b 242 115 265 46 242 69 b 378 425 242 182 289 329 z m 849 983 b 942 1056 879 983 903 1011 b 993 1138 976 1096 993 1125 b 964 1153 993 1147 983 1153 b 899 1125 913 1153 911 1151 b 814 996 860 1046 814 1006 b 849 983 814 989 826 983 z "},"Ô":{"ha":760,"x_min":0,"x_max":0,"o":"m 728 692 b 857 747 811 733 857 725 b 811 826 857 761 843 789 b 736 871 783 857 771 871 b 354 667 683 871 510 806 b 122 240 201 528 122 376 b 328 -40 122 86 215 -40 b 726 178 479 -40 618 33 b 878 574 828 314 878 468 b 764 694 878 657 842 694 b 728 692 760 694 749 693 z m 379 374 b 728 628 483 549 658 628 b 776 571 761 628 776 610 b 622 260 776 515 729 392 b 301 46 504 114 374 46 b 242 115 265 46 242 69 b 378 425 242 182 289 329 z m 871 1083 b 900 994 897 1035 896 1004 b 947 983 904 985 914 983 b 958 1015 951 983 958 996 b 907 1161 958 1114 942 1161 b 829 1132 865 1161 853 1151 l 703 1029 b 679 1003 689 1018 679 1007 b 706 986 679 993 689 986 b 871 1083 758 986 796 1032 z "},"Ö":{"ha":760,"x_min":0,"x_max":0,"o":"m 728 692 b 857 747 811 733 857 725 b 811 826 857 761 843 789 b 736 871 783 857 771 871 b 354 667 683 871 510 806 b 122 240 201 528 122 376 b 328 -40 122 86 215 -40 b 726 178 479 -40 618 33 b 878 574 828 314 878 468 b 764 694 878 657 842 694 b 728 692 760 694 749 693 z m 379 374 b 728 628 483 549 658 628 b 776 571 761 628 776 610 b 622 260 776 515 729 392 b 301 46 504 114 374 46 b 242 115 265 46 242 69 b 378 425 242 182 289 329 z m 608 1028 b 649 983 608 999 624 983 b 733 1065 692 983 733 1028 b 696 1103 733 1090 719 1103 b 608 1028 649 1103 608 1058 z m 786 1028 b 828 983 786 999 803 983 b 913 1065 869 983 913 1028 b 874 1103 913 1090 897 1103 b 786 1028 826 1103 786 1058 z "},"Ò":{"ha":760,"x_min":0,"x_max":0,"o":"m 728 692 b 857 747 811 733 857 725 b 811 826 857 761 843 789 b 736 871 783 857 771 871 b 354 667 683 871 510 806 b 122 240 201 528 122 376 b 328 -40 122 86 215 -40 b 726 178 479 -40 618 33 b 878 574 828 314 878 468 b 764 694 878 657 842 694 b 728 692 760 694 749 693 z m 379 374 b 728 628 483 549 658 628 b 776 571 761 628 776 610 b 622 260 776 515 729 392 b 301 46 504 114 374 46 b 242 115 265 46 242 69 b 378 425 242 182 289 329 z m 792 993 b 701 1139 792 1007 746 1054 b 646 1154 694 1153 682 1154 b 618 1143 626 1154 618 1151 b 707 1017 618 1128 646 1074 b 779 983 738 989 744 983 b 792 993 788 983 792 983 z "},"Õ":{"ha":760,"x_min":0,"x_max":0,"o":"m 728 692 b 857 747 811 733 857 725 b 811 826 857 761 843 789 b 736 871 783 857 771 871 b 354 667 683 871 510 806 b 122 240 201 528 122 376 b 328 -40 122 86 215 -40 b 726 178 479 -40 618 33 b 878 574 828 314 878 468 b 764 694 878 657 842 694 b 728 692 760 694 749 693 z m 379 374 b 728 628 483 549 658 628 b 776 571 761 628 776 610 b 622 260 776 515 729 392 b 301 46 504 114 374 46 b 242 115 265 46 242 69 b 378 425 242 182 289 329 z m 604 971 b 696 1047 651 971 654 1047 b 828 983 733 1047 772 983 b 914 1108 875 983 914 1061 b 892 1135 914 1126 906 1135 b 813 1056 854 1135 854 1056 b 679 1124 779 1056 738 1124 b 578 1001 625 1124 578 1042 b 604 971 578 982 588 971 z "},"Ú":{"ha":965,"x_min":0,"x_max":0,"o":"m 878 514 b 679 85 751 321 679 185 b 778 -39 679 6 718 -39 b 1086 174 849 -39 983 38 l 1083 233 b 863 88 978 133 901 88 b 822 138 835 88 822 103 b 993 490 822 221 889 331 b 1147 761 1089 636 1147 717 b 1099 857 1147 819 1121 857 b 785 531 1060 857 978 736 b 399 171 565 294 442 171 b 390 182 393 171 390 175 b 596 521 390 240 467 346 b 753 831 685 642 753 701 b 674 924 753 897 731 924 b 457 881 651 924 571 914 b 251 788 376 857 307 826 b 138 644 203 754 167 707 b 99 540 113 590 99 554 b 142 506 99 521 115 506 b 592 718 232 506 369 633 b 401 461 550 640 479 561 b 213 111 283 311 213 207 b 317 -25 213 35 271 -25 b 878 514 389 -25 568 160 z m 946 983 b 1039 1056 976 983 1000 1011 b 1090 1138 1074 1096 1090 1125 b 1061 1153 1090 1147 1081 1153 b 996 1125 1010 1153 1008 1151 b 911 996 957 1046 911 1006 b 946 983 911 989 924 983 z "},"Û":{"ha":965,"x_min":0,"x_max":0,"o":"m 878 514 b 679 85 751 321 679 185 b 778 -39 679 6 718 -39 b 1086 174 849 -39 983 38 l 1083 233 b 863 88 978 133 901 88 b 822 138 835 88 822 103 b 993 490 822 221 889 331 b 1147 761 1089 636 1147 717 b 1099 857 1147 819 1121 857 b 785 531 1060 857 978 736 b 399 171 565 294 442 171 b 390 182 393 171 390 175 b 596 521 390 240 467 346 b 753 831 685 642 753 701 b 674 924 753 897 731 924 b 457 881 651 924 571 914 b 251 788 376 857 307 826 b 138 644 203 754 167 707 b 99 540 113 590 99 554 b 142 506 99 521 115 506 b 592 718 232 506 369 633 b 401 461 550 640 479 561 b 213 111 283 311 213 207 b 317 -25 213 35 271 -25 b 878 514 389 -25 568 160 z m 996 1083 b 1025 994 1022 1035 1021 1004 b 1072 983 1029 985 1039 983 b 1083 1015 1076 983 1083 996 b 1032 1161 1083 1114 1067 1161 b 954 1132 990 1161 978 1151 l 828 1029 b 804 1003 814 1018 804 1007 b 831 986 804 993 814 986 b 996 1083 883 986 921 1032 z "},"Ü":{"ha":965,"x_min":0,"x_max":0,"o":"m 878 514 b 679 85 751 321 679 185 b 778 -39 679 6 718 -39 b 1086 174 849 -39 983 38 l 1083 233 b 863 88 978 133 901 88 b 822 138 835 88 822 103 b 993 490 822 221 889 331 b 1147 761 1089 636 1147 717 b 1099 857 1147 819 1121 857 b 785 531 1060 857 978 736 b 399 171 565 294 442 171 b 390 182 393 171 390 175 b 596 521 390 240 467 346 b 753 831 685 642 753 701 b 674 924 753 897 731 924 b 457 881 651 924 571 914 b 251 788 376 857 307 826 b 138 644 203 754 167 707 b 99 540 113 590 99 554 b 142 506 99 521 115 506 b 592 718 232 506 369 633 b 401 461 550 640 479 561 b 213 111 283 311 213 207 b 317 -25 213 35 271 -25 b 878 514 389 -25 568 160 z m 811 1028 b 851 983 811 999 826 983 b 936 1065 894 983 936 1028 b 899 1103 936 1090 922 1103 b 811 1028 851 1103 811 1058 z m 989 1028 b 1031 983 989 999 1006 983 b 1115 1065 1072 983 1115 1028 b 1076 1103 1115 1090 1100 1103 b 989 1028 1029 1103 989 1058 z "},"Ù":{"ha":965,"x_min":0,"x_max":0,"o":"m 878 514 b 679 85 751 321 679 185 b 778 -39 679 6 718 -39 b 1086 174 849 -39 983 38 l 1083 233 b 863 88 978 133 901 88 b 822 138 835 88 822 103 b 993 490 822 221 889 331 b 1147 761 1089 636 1147 717 b 1099 857 1147 819 1121 857 b 785 531 1060 857 978 736 b 399 171 565 294 442 171 b 390 182 393 171 390 175 b 596 521 390 240 467 346 b 753 831 685 642 753 701 b 674 924 753 897 731 924 b 457 881 651 924 571 914 b 251 788 376 857 307 826 b 138 644 203 754 167 707 b 99 540 113 590 99 554 b 142 506 99 521 115 506 b 592 718 232 506 369 633 b 401 461 550 640 479 561 b 213 111 283 311 213 207 b 317 -25 213 35 271 -25 b 878 514 389 -25 568 160 z m 931 993 b 840 1139 931 1007 885 1054 b 785 1154 833 1153 821 1154 b 757 1143 765 1154 757 1151 b 846 1017 757 1128 785 1074 b 918 983 876 989 883 983 b 931 993 926 983 931 983 z "},"Ÿ":{"ha":842,"x_min":0,"x_max":0,"o":"m 781 433 b 361 -300 503 50 361 -189 b 419 -365 361 -339 389 -365 b 674 -135 461 -365 515 -274 b 907 83 814 -12 907 44 b 883 99 907 94 899 99 b 625 -21 857 99 753 71 b 1019 619 835 383 1019 569 b 960 710 1019 646 981 710 b 708 482 932 710 851 631 b 394 238 554 319 451 238 b 383 251 388 238 383 243 b 589 551 383 293 458 385 b 760 853 699 692 760 790 b 664 915 760 890 726 915 b 357 818 578 915 479 882 b 172 699 269 772 208 731 b 96 504 129 661 96 550 b 107 483 96 489 99 483 b 313 581 122 483 197 513 b 576 718 453 664 536 718 b 583 713 582 718 583 715 b 386 447 583 672 506 593 b 181 90 240 269 181 138 b 267 1 181 46 224 1 b 781 433 304 1 499 135 z m 907 983 b 1000 1056 938 983 961 1011 b 1051 1138 1035 1096 1051 1125 b 1022 1153 1051 1147 1042 1153 b 957 1125 971 1153 969 1151 b 872 996 918 1046 872 1006 b 907 983 872 989 885 983 z "},"á":{"ha":599,"x_min":0,"x_max":0,"o":"m 526 408 b 213 118 372 210 244 118 b 190 153 200 118 190 132 b 526 408 190 257 307 315 z m 421 181 b 389 50 403 122 389 82 b 461 -29 389 3 422 -29 b 740 201 525 -29 606 56 l 739 258 b 550 129 650 175 593 129 b 513 161 526 129 513 140 b 614 363 513 233 614 325 b 606 388 614 369 610 378 l 583 435 l 607 449 b 631 472 624 458 631 463 b 568 540 631 496 599 540 b 429 503 557 540 506 532 b 217 382 347 472 279 433 b 88 188 133 311 88 240 b 193 -1 88 103 164 -1 b 421 181 231 -1 306 60 z m 508 569 b 601 642 539 569 563 597 b 653 724 636 682 653 711 b 624 739 653 733 643 739 b 558 711 572 739 571 738 b 474 582 519 632 474 592 b 508 569 474 575 486 569 z "},"â":{"ha":599,"x_min":0,"x_max":0,"o":"m 526 408 b 213 118 372 210 244 118 b 190 153 200 118 190 132 b 526 408 190 257 307 315 z m 421 181 b 389 50 403 122 389 82 b 461 -29 389 3 422 -29 b 740 201 525 -29 606 56 l 739 258 b 550 129 650 175 593 129 b 513 161 526 129 513 140 b 614 363 513 233 614 325 b 606 388 614 369 610 378 l 583 435 l 607 449 b 631 472 624 458 631 463 b 568 540 631 496 599 540 b 429 503 557 540 506 532 b 217 382 347 472 279 433 b 88 188 133 311 88 240 b 193 -1 88 103 164 -1 b 421 181 231 -1 306 60 z m 604 669 b 633 581 631 621 629 590 b 681 569 638 571 647 569 b 692 601 685 569 692 582 b 640 747 692 700 675 747 b 563 718 599 747 586 738 l 436 615 b 413 589 422 604 413 593 b 439 572 413 579 422 572 b 604 669 492 572 529 618 z "},"ä":{"ha":599,"x_min":0,"x_max":0,"o":"m 526 408 b 213 118 372 210 244 118 b 190 153 200 118 190 132 b 526 408 190 257 307 315 z m 421 181 b 389 50 403 122 389 82 b 461 -29 389 3 422 -29 b 740 201 525 -29 606 56 l 739 258 b 550 129 650 175 593 129 b 513 161 526 129 513 140 b 614 363 513 233 614 325 b 606 388 614 369 610 378 l 583 435 l 607 449 b 631 472 624 458 631 463 b 568 540 631 496 599 540 b 429 503 557 540 506 532 b 217 382 347 472 279 433 b 88 188 133 311 88 240 b 193 -1 88 103 164 -1 b 421 181 231 -1 306 60 z m 436 614 b 476 569 436 585 451 569 b 561 651 519 569 561 614 b 524 689 561 676 547 689 b 436 614 476 689 436 644 z m 614 614 b 656 569 614 585 631 569 b 740 651 697 569 740 614 b 701 689 740 676 725 689 b 614 614 654 689 614 644 z "},"à":{"ha":599,"x_min":0,"x_max":0,"o":"m 526 408 b 213 118 372 210 244 118 b 190 153 200 118 190 132 b 526 408 190 257 307 315 z m 421 181 b 389 50 403 122 389 82 b 461 -29 389 3 422 -29 b 740 201 525 -29 606 56 l 739 258 b 550 129 650 175 593 129 b 513 161 526 129 513 140 b 614 363 513 233 614 325 b 606 388 614 369 610 378 l 583 435 l 607 449 b 631 472 624 458 631 463 b 568 540 631 496 599 540 b 429 503 557 540 506 532 b 217 382 347 472 279 433 b 88 188 133 311 88 240 b 193 -1 88 103 164 -1 b 421 181 231 -1 306 60 z m 653 582 b 563 728 653 596 607 643 b 507 743 556 742 543 743 b 479 732 488 743 479 740 b 568 606 479 717 507 663 b 640 572 599 578 606 572 b 653 582 649 572 653 572 z "},"å":{"ha":599,"x_min":0,"x_max":0,"o":"m 526 408 b 213 118 372 210 244 118 b 190 153 200 118 190 132 b 526 408 190 257 307 315 z m 421 181 b 389 50 403 122 389 82 b 461 -29 389 3 422 -29 b 740 201 525 -29 606 56 l 739 258 b 550 129 650 175 593 129 b 513 161 526 129 513 140 b 614 363 513 233 614 325 b 606 388 614 369 610 378 l 583 435 l 607 449 b 631 472 624 458 631 463 b 568 540 631 496 599 540 b 429 503 557 540 506 532 b 217 382 347 472 279 433 b 88 188 133 311 88 240 b 193 -1 88 103 164 -1 b 421 181 231 -1 306 60 z m 688 819 b 693 842 690 828 693 835 b 650 871 693 861 679 871 b 472 726 564 871 472 807 b 574 613 472 658 517 613 b 714 742 642 613 714 665 b 688 819 714 772 707 796 z m 653 792 b 653 774 653 786 653 779 b 550 665 653 713 590 665 b 525 708 536 665 525 683 b 625 794 525 751 582 794 b 653 792 632 794 642 793 z "},"ã":{"ha":599,"x_min":0,"x_max":0,"o":"m 526 408 b 213 118 372 210 244 118 b 190 153 200 118 190 132 b 526 408 190 257 307 315 z m 421 181 b 389 50 403 122 389 82 b 461 -29 389 3 422 -29 b 740 201 525 -29 606 56 l 739 258 b 550 129 650 175 593 129 b 513 161 526 129 513 140 b 614 363 513 233 614 325 b 606 388 614 369 610 378 l 583 435 l 607 449 b 631 472 624 458 631 463 b 568 540 631 496 599 540 b 429 503 557 540 506 532 b 217 382 347 472 279 433 b 88 188 133 311 88 240 b 193 -1 88 103 164 -1 b 421 181 231 -1 306 60 z m 433 557 b 525 633 481 557 483 633 b 657 569 563 633 601 569 b 743 694 704 569 743 647 b 721 721 743 713 735 721 b 642 642 683 721 683 642 b 508 710 608 642 567 710 b 407 588 454 710 407 628 b 433 557 407 568 417 557 z "},"ç":{"ha":401,"x_min":0,"x_max":0,"o":"m 222 -33 b 179 -108 208 -56 193 -81 b 257 -140 231 -110 257 -124 b 183 -181 257 -158 221 -181 b 160 -172 176 -181 168 -178 b 186 -150 176 -160 186 -158 b 176 -146 186 -146 183 -146 b 88 -171 164 -146 133 -154 b 76 -201 79 -182 76 -193 b 129 -237 76 -224 94 -237 b 232 -208 169 -237 201 -229 b 303 -111 276 -176 303 -132 b 243 -62 303 -85 281 -65 l 268 -28 b 549 199 339 -7 435 68 l 549 257 b 260 92 432 147 338 92 b 179 181 210 92 179 124 b 179 194 179 185 179 189 b 332 326 210 239 260 282 b 360 281 333 294 340 281 b 490 458 396 281 490 382 b 429 513 490 496 471 513 b 211 407 388 513 297 479 b 85 175 126 336 85 256 b 222 -33 85 67 153 -26 z "},"é":{"ha":442,"x_min":0,"x_max":0,"o":"m 219 251 b 435 435 288 382 400 435 b 444 419 442 435 444 431 b 219 251 444 382 368 319 z m 214 196 b 546 449 425 246 546 374 b 451 507 546 488 515 507 b 207 394 369 507 286 469 b 89 156 129 321 89 240 b 238 -21 89 39 143 -21 b 578 199 340 -21 446 54 l 578 257 b 300 92 461 144 363 92 b 214 189 250 92 214 128 b 214 196 214 192 214 193 z m 453 569 b 546 642 483 569 507 597 b 597 724 581 682 597 711 b 568 739 597 733 588 739 b 503 711 517 739 515 738 b 418 582 464 632 418 592 b 453 569 418 575 431 569 z "},"ê":{"ha":442,"x_min":0,"x_max":0,"o":"m 219 251 b 435 435 288 382 400 435 b 444 419 442 435 444 431 b 219 251 444 382 368 319 z m 214 196 b 546 449 425 246 546 374 b 451 507 546 488 515 507 b 207 394 369 507 286 469 b 89 156 129 321 89 240 b 238 -21 89 39 143 -21 b 578 199 340 -21 446 54 l 578 257 b 300 92 461 144 363 92 b 214 189 250 92 214 128 b 214 196 214 192 214 193 z m 521 669 b 550 581 547 621 546 590 b 597 569 554 571 564 569 b 608 601 601 569 608 582 b 557 747 608 700 592 747 b 479 718 515 747 503 738 l 353 615 b 329 589 339 604 329 593 b 356 572 329 579 339 572 b 521 669 408 572 446 618 z "},"ë":{"ha":442,"x_min":0,"x_max":0,"o":"m 219 251 b 435 435 288 382 400 435 b 444 419 442 435 444 431 b 219 251 444 382 368 319 z m 214 196 b 546 449 425 246 546 374 b 451 507 546 488 515 507 b 207 394 369 507 286 469 b 89 156 129 321 89 240 b 238 -21 89 39 143 -21 b 578 199 340 -21 446 54 l 578 257 b 300 92 461 144 363 92 b 214 189 250 92 214 128 b 214 196 214 192 214 193 z m 325 614 b 365 569 325 585 340 569 b 450 651 408 569 450 614 b 413 689 450 676 436 689 b 325 614 365 689 325 644 z m 503 614 b 544 569 503 585 519 569 b 629 651 586 569 629 614 b 590 689 629 676 614 689 b 503 614 543 689 503 644 z "},"è":{"ha":442,"x_min":0,"x_max":0,"o":"m 219 251 b 435 435 288 382 400 435 b 444 419 442 435 444 431 b 219 251 444 382 368 319 z m 214 196 b 546 449 425 246 546 374 b 451 507 546 488 515 507 b 207 394 369 507 286 469 b 89 156 129 321 89 240 b 238 -21 89 39 143 -21 b 578 199 340 -21 446 54 l 578 257 b 300 92 461 144 363 92 b 214 189 250 92 214 128 b 214 196 214 192 214 193 z m 514 582 b 424 728 514 596 468 643 b 368 743 417 742 404 743 b 340 732 349 743 340 740 b 429 606 340 717 368 663 b 501 572 460 578 467 572 b 514 582 510 572 514 572 z "},"í":{"ha":331,"x_min":0,"x_max":0,"o":"m 468 257 b 251 113 367 158 290 113 b 188 175 214 113 188 138 b 194 219 188 189 190 203 b 368 449 314 321 368 404 b 324 486 368 474 353 486 b 207 422 281 486 247 463 b 78 160 117 333 78 258 b 193 -14 78 47 122 -14 b 469 199 271 -14 356 60 z m 374 569 b 467 642 404 569 428 597 b 518 724 501 682 518 711 b 489 739 518 733 508 739 b 424 711 438 739 436 738 b 339 582 385 632 339 592 b 374 569 339 575 351 569 z "},"î":{"ha":331,"x_min":0,"x_max":0,"o":"m 468 257 b 251 113 367 158 290 113 b 188 175 214 113 188 138 b 194 219 188 189 190 203 b 368 449 314 321 368 404 b 324 486 368 474 353 486 b 207 422 281 486 247 463 b 78 160 117 333 78 258 b 193 -14 78 47 122 -14 b 469 199 271 -14 356 60 z m 382 669 b 411 581 408 621 407 590 b 458 569 415 571 425 569 b 469 601 463 569 469 582 b 418 747 469 700 453 747 b 340 718 376 747 364 738 l 214 615 b 190 589 200 604 190 593 b 217 572 190 579 200 572 b 382 669 269 572 307 618 z "},"ï":{"ha":331,"x_min":0,"x_max":0,"o":"m 468 257 b 251 113 367 158 290 113 b 188 175 214 113 188 138 b 194 219 188 189 190 203 b 368 449 314 321 368 404 b 324 486 368 474 353 486 b 207 422 281 486 247 463 b 78 160 117 333 78 258 b 193 -14 78 47 122 -14 b 469 199 271 -14 356 60 z m 200 614 b 240 569 200 585 215 569 b 325 651 283 569 325 614 b 288 689 325 676 311 689 b 200 614 240 689 200 644 z m 378 614 b 419 569 378 585 394 569 b 504 651 461 569 504 614 b 465 689 504 676 489 689 b 378 614 418 689 378 644 z "},"ì":{"ha":331,"x_min":0,"x_max":0,"o":"m 468 257 b 251 113 367 158 290 113 b 188 175 214 113 188 138 b 194 219 188 189 190 203 b 368 449 314 321 368 404 b 324 486 368 474 353 486 b 207 422 281 486 247 463 b 78 160 117 333 78 258 b 193 -14 78 47 122 -14 b 469 199 271 -14 356 60 z m 361 582 b 271 728 361 596 315 643 b 215 743 264 742 251 743 b 188 732 196 743 188 740 b 276 606 188 717 215 663 b 349 572 307 578 314 572 b 361 582 357 572 361 572 z "},"ñ":{"ha":499,"x_min":0,"x_max":0,"o":"m 60 206 b 58 171 58 189 58 176 b 128 1 58 65 89 1 b 410 297 171 1 229 129 b 294 60 333 192 294 114 b 364 -31 294 6 324 -31 b 646 200 435 -31 514 56 l 646 260 b 457 115 542 165 481 115 b 431 143 439 115 431 125 b 500 276 431 157 451 213 b 576 394 538 326 576 347 b 535 476 576 435 554 476 b 165 168 496 476 354 383 b 165 171 165 169 165 171 b 199 250 165 196 175 225 b 313 403 274 335 313 385 b 249 432 313 417 283 432 b 60 206 192 432 126 356 z m 267 557 b 358 633 314 557 317 633 b 490 569 396 633 435 569 b 576 694 538 569 576 647 b 554 721 576 713 568 721 b 475 642 517 721 517 642 b 342 710 442 642 400 710 b 240 588 288 710 240 628 b 267 557 240 568 250 557 z "},"ó":{"ha":458,"x_min":0,"x_max":0,"o":"m 306 132 b 208 83 272 99 238 83 b 157 135 175 83 157 100 b 368 364 157 197 229 307 b 303 172 325 283 303 219 b 306 132 303 161 304 147 z m 371 72 b 399 71 382 71 392 71 b 594 197 453 71 513 117 l 596 264 b 415 142 515 185 460 143 b 488 349 464 218 488 288 b 447 410 488 392 478 410 b 444 410 447 410 446 410 b 468 442 458 429 468 435 b 376 488 468 460 429 488 b 178 394 322 488 243 456 b 61 163 101 324 61 232 b 201 -21 61 49 126 -21 b 371 72 257 -21 314 11 z m 440 569 b 533 642 471 569 494 597 b 585 724 568 682 585 711 b 556 739 585 733 575 739 b 490 711 504 739 503 738 b 406 582 451 632 406 592 b 440 569 406 575 418 569 z "},"ô":{"ha":458,"x_min":0,"x_max":0,"o":"m 306 132 b 208 83 272 99 238 83 b 157 135 175 83 157 100 b 368 364 157 197 229 307 b 303 172 325 283 303 219 b 306 132 303 161 304 147 z m 371 72 b 399 71 382 71 392 71 b 594 197 453 71 513 117 l 596 264 b 415 142 515 185 460 143 b 488 349 464 218 488 288 b 447 410 488 392 478 410 b 444 410 447 410 446 410 b 468 442 458 429 468 435 b 376 488 468 460 429 488 b 178 394 322 488 243 456 b 61 163 101 324 61 232 b 201 -21 61 49 126 -21 b 371 72 257 -21 314 11 z m 451 669 b 481 581 478 621 476 590 b 528 569 485 571 494 569 b 539 601 532 569 539 582 b 488 747 539 700 522 747 b 410 718 446 747 433 738 l 283 615 b 260 589 269 604 260 593 b 286 572 260 579 269 572 b 451 669 339 572 376 618 z "},"ö":{"ha":458,"x_min":0,"x_max":0,"o":"m 306 132 b 208 83 272 99 238 83 b 157 135 175 83 157 100 b 368 364 157 197 229 307 b 303 172 325 283 303 219 b 306 132 303 161 304 147 z m 371 72 b 399 71 382 71 392 71 b 594 197 453 71 513 117 l 596 264 b 415 142 515 185 460 143 b 488 349 464 218 488 288 b 447 410 488 392 478 410 b 444 410 447 410 446 410 b 468 442 458 429 468 435 b 376 488 468 460 429 488 b 178 394 322 488 243 456 b 61 163 101 324 61 232 b 201 -21 61 49 126 -21 b 371 72 257 -21 314 11 z m 256 614 b 296 569 256 585 271 569 b 381 651 339 569 381 614 b 343 689 381 676 367 689 b 256 614 296 689 256 644 z m 433 614 b 475 569 433 585 450 569 b 560 651 517 569 560 614 b 521 689 560 676 544 689 b 433 614 474 689 433 644 z "},"ò":{"ha":458,"x_min":0,"x_max":0,"o":"m 306 132 b 208 83 272 99 238 83 b 157 135 175 83 157 100 b 368 364 157 197 229 307 b 303 172 325 283 303 219 b 306 132 303 161 304 147 z m 371 72 b 399 71 382 71 392 71 b 594 197 453 71 513 117 l 596 264 b 415 142 515 185 460 143 b 488 349 464 218 488 288 b 447 410 488 392 478 410 b 444 410 447 410 446 410 b 468 442 458 429 468 435 b 376 488 468 460 429 488 b 178 394 322 488 243 456 b 61 163 101 324 61 232 b 201 -21 61 49 126 -21 b 371 72 257 -21 314 11 z m 403 582 b 313 728 403 596 357 643 b 257 743 306 742 293 743 b 229 732 238 743 229 740 b 318 606 229 717 257 663 b 390 572 349 578 356 572 b 403 582 399 572 403 572 z "},"õ":{"ha":458,"x_min":0,"x_max":0,"o":"m 306 132 b 208 83 272 99 238 83 b 157 135 175 83 157 100 b 368 364 157 197 229 307 b 303 172 325 283 303 219 b 306 132 303 161 304 147 z m 371 72 b 399 71 382 71 392 71 b 594 197 453 71 513 117 l 596 264 b 415 142 515 185 460 143 b 488 349 464 218 488 288 b 447 410 488 392 478 410 b 444 410 447 410 446 410 b 468 442 458 429 468 435 b 376 488 468 460 429 488 b 178 394 322 488 243 456 b 61 163 101 324 61 232 b 201 -21 61 49 126 -21 b 371 72 257 -21 314 11 z m 243 557 b 335 633 290 557 293 633 b 467 569 372 633 411 569 b 553 694 514 569 553 647 b 531 721 553 713 544 721 b 451 642 493 721 493 642 b 318 710 418 642 376 710 b 217 588 264 710 217 628 b 243 557 217 568 226 557 z "},"ú":{"ha":558,"x_min":0,"x_max":0,"o":"m 379 176 b 344 49 354 119 344 76 b 424 -35 344 -1 376 -35 b 708 199 490 -35 574 47 l 708 258 b 507 110 601 164 539 110 b 475 140 490 110 475 122 b 615 378 475 172 515 264 b 643 449 636 403 643 408 b 618 504 643 486 633 504 b 435 340 588 504 531 443 b 189 138 306 203 214 138 b 183 153 185 138 183 143 b 208 233 183 172 192 199 b 383 435 321 342 383 403 b 311 463 383 450 353 463 b 203 396 268 463 244 442 b 85 156 125 310 85 242 b 185 -3 85 56 146 -3 b 379 176 222 -3 286 57 z m 499 569 b 592 642 529 569 553 597 b 643 724 626 682 643 711 b 614 739 643 733 633 739 b 549 711 563 739 561 738 b 464 582 510 632 464 592 b 499 569 464 575 476 569 z "},"û":{"ha":558,"x_min":0,"x_max":0,"o":"m 379 176 b 344 49 354 119 344 76 b 424 -35 344 -1 376 -35 b 708 199 490 -35 574 47 l 708 258 b 507 110 601 164 539 110 b 475 140 490 110 475 122 b 615 378 475 172 515 264 b 643 449 636 403 643 408 b 618 504 643 486 633 504 b 435 340 588 504 531 443 b 189 138 306 203 214 138 b 183 153 185 138 183 143 b 208 233 183 172 192 199 b 383 435 321 342 383 403 b 311 463 383 450 353 463 b 203 396 268 463 244 442 b 85 156 125 310 85 242 b 185 -3 85 56 146 -3 b 379 176 222 -3 286 57 z m 549 669 b 578 581 575 621 574 590 b 625 569 582 571 592 569 b 636 601 629 569 636 582 b 585 747 636 700 619 747 b 507 718 543 747 531 738 l 381 615 b 357 589 367 604 357 593 b 383 572 357 579 367 572 b 549 669 436 572 474 618 z "},"ü":{"ha":558,"x_min":0,"x_max":0,"o":"m 379 176 b 344 49 354 119 344 76 b 424 -35 344 -1 376 -35 b 708 199 490 -35 574 47 l 708 258 b 507 110 601 164 539 110 b 475 140 490 110 475 122 b 615 378 475 172 515 264 b 643 449 636 403 643 408 b 618 504 643 486 633 504 b 435 340 588 504 531 443 b 189 138 306 203 214 138 b 183 153 185 138 183 143 b 208 233 183 172 192 199 b 383 435 321 342 383 403 b 311 463 383 450 353 463 b 203 396 268 463 244 442 b 85 156 125 310 85 242 b 185 -3 85 56 146 -3 b 379 176 222 -3 286 57 z m 353 614 b 393 569 353 585 368 569 b 478 651 436 569 478 614 b 440 689 478 676 464 689 b 353 614 393 689 353 644 z m 531 614 b 572 569 531 585 547 569 b 657 651 614 569 657 614 b 618 689 657 676 642 689 b 531 614 571 689 531 644 z "},"ù":{"ha":558,"x_min":0,"x_max":0,"o":"m 379 176 b 344 49 354 119 344 76 b 424 -35 344 -1 376 -35 b 708 199 490 -35 574 47 l 708 258 b 507 110 601 164 539 110 b 475 140 490 110 475 122 b 615 378 475 172 515 264 b 643 449 636 403 643 408 b 618 504 643 486 633 504 b 435 340 588 504 531 443 b 189 138 306 203 214 138 b 183 153 185 138 183 143 b 208 233 183 172 192 199 b 383 435 321 342 383 403 b 311 463 383 450 353 463 b 203 396 268 463 244 442 b 85 156 125 310 85 242 b 185 -3 85 56 146 -3 b 379 176 222 -3 286 57 z m 500 582 b 410 728 500 596 454 643 b 354 743 403 742 390 743 b 326 732 335 743 326 740 b 415 606 326 717 354 663 b 488 572 446 578 453 572 b 500 582 496 572 500 572 z "},"ÿ":{"ha":550,"x_min":0,"x_max":0,"o":"m 396 150 b 171 -251 236 -81 171 -225 b 204 -350 171 -296 194 -350 b 686 200 224 -350 361 -158 l 686 260 b 381 -25 593 154 490 60 b 626 389 522 221 626 328 b 586 450 626 426 615 444 b 181 121 357 213 197 121 b 175 136 175 121 175 126 b 224 225 175 165 193 190 b 396 425 342 324 396 397 b 335 479 396 442 360 479 b 174 347 326 479 249 432 b 85 156 115 279 85 217 b 171 -12 85 74 140 -12 b 396 150 192 -12 276 36 z m 394 614 b 435 569 394 585 410 569 b 519 651 478 569 519 614 b 482 689 519 676 506 689 b 394 614 435 689 394 644 z m 572 614 b 614 569 572 585 589 569 b 699 651 656 569 699 614 b 660 689 699 676 683 689 b 572 614 613 689 572 644 z "},"∞":{"ha":550,"x_min":0,"x_max":0,"o":"m 396 150 b 171 -251 236 -81 171 -225 b 204 -350 171 -296 194 -350 b 686 200 224 -350 361 -158 l 686 260 b 381 -25 593 154 490 60 b 626 389 522 221 626 328 b 586 450 626 426 615 444 b 181 121 357 213 197 121 b 175 136 175 121 175 126 b 224 225 175 165 193 190 b 396 425 342 324 396 397 b 335 479 396 442 360 479 b 174 347 326 479 249 432 b 85 156 115 279 85 217 b 171 -12 85 74 140 -12 b 396 150 192 -12 276 36 z m 526 569 b 619 642 557 569 581 597 b 671 724 654 682 671 711 b 642 739 671 733 661 739 b 576 711 590 739 589 738 b 492 582 538 632 492 592 b 526 569 492 575 504 569 z "},"≤":{"ha":639,"x_min":0,"x_max":0,"o":"m 306 414 b 293 414 301 414 297 414 b 257 396 281 414 269 408 b 219 329 231 371 219 346 b 356 264 219 286 264 264 b 554 311 428 264 496 279 b 663 447 626 350 663 396 b 468 558 663 518 600 549 b 758 704 665 581 758 621 b 596 806 758 771 704 806 b 357 703 453 806 357 758 b 397 663 357 679 375 663 b 500 668 411 663 443 665 l 443 696 b 626 731 493 719 557 731 b 701 704 676 731 701 724 b 446 606 701 674 615 631 b 343 514 386 597 343 582 b 361 499 343 501 349 499 b 460 506 368 499 400 506 b 594 463 549 506 594 493 b 349 363 594 431 481 363 b 288 392 308 363 288 375 b 306 414 288 400 293 407 z "},"≥":{"ha":594,"x_min":0,"x_max":0,"o":"m 306 376 b 572 531 404 443 497 489 b 713 683 672 585 713 615 b 686 782 713 726 703 760 b 606 803 671 800 647 803 b 336 622 436 803 336 725 b 360 600 336 601 347 600 b 369 600 364 600 367 600 b 457 614 382 600 418 614 b 464 614 460 614 461 614 b 482 624 476 614 482 617 b 404 649 482 635 456 647 b 619 715 478 696 569 715 b 661 699 647 715 661 708 b 438 553 661 640 564 619 b 239 374 304 483 239 422 b 264 304 239 353 253 315 b 339 281 279 286 303 281 b 538 304 435 281 503 292 b 614 404 583 322 614 375 b 601 415 614 414 610 415 b 306 376 586 415 489 394 z "},"∂":{"ha":1294,"x_min":0,"x_max":0,"o":"m 454 717 b 247 374 307 563 247 436 b 319 307 247 338 310 307 b 333 325 326 307 333 314 b 331 344 333 329 331 336 b 392 488 331 361 354 431 l 488 631 b 543 744 521 681 543 715 b 515 792 543 771 532 792 b 378 735 503 792 444 775 b 344 694 354 721 344 706 b 351 683 344 688 347 683 b 454 717 363 683 394 699 z m 556 -14 b 865 536 644 189 754 364 b 1065 832 979 710 1065 782 b 1038 861 1065 857 1057 861 b 671 446 978 861 847 724 b 415 -71 492 165 415 -12 b 482 -139 415 -108 469 -139 b 553 -61 501 -139 525 -112 z m 903 61 b 1157 206 997 125 1085 168 b 1292 349 1254 256 1292 285 b 1265 440 1292 389 1283 421 b 1189 460 1253 457 1231 460 b 932 292 1028 460 932 388 b 954 271 932 272 943 271 b 964 271 958 271 961 271 b 1047 283 976 271 1010 283 b 1054 283 1050 283 1051 283 b 1072 293 1067 283 1072 286 b 997 317 1072 303 1046 315 b 1204 378 1069 358 1154 378 b 1243 361 1229 378 1243 372 b 1028 225 1243 308 1150 288 b 839 60 903 163 839 104 b 861 -6 839 39 854 6 b 935 -26 878 -22 900 -26 b 1125 -6 1026 -26 1092 -18 b 1197 88 1168 10 1197 60 b 1185 99 1197 96 1194 99 b 903 61 1171 99 1078 78 z "},"∑":{"ha":1303,"x_min":0,"x_max":0,"o":"m 458 717 b 251 374 311 563 251 436 b 324 307 251 338 314 307 b 338 325 331 307 338 314 b 335 344 338 329 335 336 b 396 488 335 361 358 431 l 492 631 b 547 744 525 681 547 715 b 519 792 547 771 536 792 b 382 735 507 792 449 775 b 349 694 358 721 349 706 b 356 683 349 688 351 683 b 458 717 367 683 399 699 z m 560 -14 b 869 536 649 189 758 364 b 1069 832 983 710 1069 782 b 1042 861 1069 857 1061 861 b 675 446 982 861 851 724 b 419 -71 496 165 419 -12 b 486 -139 419 -108 474 -139 b 557 -61 506 -139 529 -112 z m 1136 92 l 1181 97 b 1229 114 1203 100 1218 106 b 1268 169 1256 138 1268 158 b 1235 189 1268 182 1258 189 b 1229 189 1233 189 1231 189 l 1183 188 l 1275 324 b 1307 392 1294 353 1307 374 b 1294 419 1307 399 1303 408 b 1308 438 1304 426 1308 433 b 1279 463 1308 451 1293 463 b 1063 368 1254 463 1169 432 b 863 161 925 286 863 200 b 882 97 863 147 868 119 b 924 76 893 78 900 76 b 944 76 931 76 938 76 l 944 76 l 1032 81 b 1024 3 1025 53 1024 26 b 1046 -43 1024 -28 1031 -43 b 1125 10 1071 -43 1125 -10 b 1118 28 1125 17 1118 19 b 1136 92 1118 39 1122 65 z m 1074 174 b 988 164 1047 169 1021 164 b 944 169 971 164 957 165 b 1267 406 1040 286 1154 367 b 1074 174 1181 318 1118 242 z "},"∏":{"ha":389,"x_min":0,"x_max":0,"o":"m 451 713 b 235 344 297 546 235 411 b 311 274 235 306 300 274 b 324 292 318 274 324 279 b 322 313 324 297 322 303 b 388 467 322 331 347 404 l 486 619 b 544 742 521 674 544 710 b 515 792 544 771 533 792 b 372 731 503 792 443 772 b 336 688 346 715 336 700 b 343 676 336 681 340 676 b 451 713 357 676 390 693 z "},"π":{"ha":369,"x_min":0,"x_max":0,"o":"m 257 386 b 333 308 257 343 292 308 b 411 386 376 308 411 344 b 333 463 411 429 376 463 b 257 386 290 463 257 431 z "},"∫":{"ha":1400,"x_min":0,"x_max":0,"o":"m 297 438 b 286 439 293 439 289 439 b 251 422 272 439 264 433 b 214 358 226 399 214 375 b 344 299 214 319 257 299 b 536 343 414 299 479 313 b 639 469 604 379 639 422 b 453 572 639 536 578 565 b 731 710 642 593 731 633 b 574 804 731 772 676 804 b 346 708 438 804 346 761 b 385 671 346 688 364 671 b 483 675 397 671 431 672 l 429 701 b 604 735 476 724 538 735 b 674 710 650 735 674 726 b 432 618 674 682 593 642 b 332 532 374 610 332 594 b 351 517 332 519 338 517 b 443 524 357 517 388 524 b 572 486 531 524 572 513 b 338 392 572 454 464 392 b 281 418 300 392 281 403 b 297 438 281 425 286 432 z m 657 -14 b 967 536 746 189 856 364 b 1167 832 1081 710 1167 782 b 1139 861 1167 857 1158 861 b 772 446 1079 861 949 724 b 517 -71 593 165 517 -12 b 583 -139 517 -108 571 -139 b 654 -61 603 -139 626 -112 z m 1233 92 l 1278 97 b 1326 114 1300 100 1315 106 b 1365 169 1353 138 1365 158 b 1332 189 1365 182 1356 189 b 1326 189 1331 189 1328 189 l 1281 188 l 1372 324 b 1404 392 1392 353 1404 374 b 1392 419 1404 399 1400 408 b 1406 438 1401 426 1406 433 b 1376 463 1406 451 1390 463 b 1160 368 1351 463 1267 432 b 960 161 1022 286 960 200 b 979 97 960 147 965 119 b 1021 76 990 78 997 76 b 1042 76 1028 76 1035 76 l 1042 76 l 1129 81 b 1121 3 1122 53 1121 26 b 1143 -43 1121 -28 1128 -43 b 1222 10 1168 -43 1222 -10 b 1215 28 1222 17 1215 19 b 1233 92 1215 39 1219 65 z m 1171 174 b 1085 164 1144 169 1118 164 b 1042 169 1068 164 1054 165 b 1364 406 1138 286 1251 367 b 1171 174 1278 318 1215 242 z "},"√":{"ha":479,"x_min":0,"x_max":0,"o":"m 439 646 b 410 735 413 694 414 725 b 361 746 407 744 394 746 b 353 715 357 746 353 735 b 403 569 353 617 368 569 b 479 597 444 569 457 579 l 607 701 b 629 728 621 714 629 724 b 604 743 629 738 621 743 b 439 646 551 743 514 699 z "}," ":{"ha":660,"x_min":0,"x_max":0,"o":""}}}
